<?xml version="1.0" encoding="utf-8"?>
<!-- Generator: Adobe Illustrator 22.0.1, SVG Export Plug-In . SVG Version: 6.00 Build 0)  -->
<svg version="1.1" xmlns="http://www.w3.org/2000/svg" xmlns:xlink="http://www.w3.org/1999/xlink" x="0px" y="0px"
	 viewBox="0 0 1008 792" style="enable-background:new 0 0 1008 792;" xml:space="preserve">
<style type="text/css">
	.st0{fill:none;stroke:#142014;stroke-width:1.000000e-02;stroke-miterlimit:10;}
	.st1{fill:none;stroke:#142014;stroke-width:1.000000e-02;stroke-linecap:round;stroke-linejoin:round;stroke-miterlimit:10;}
	.st2{fill:none;stroke:#142014;stroke-width:1.000000e-02;}
	.st3{fill:none;stroke:#ED2024;stroke-width:1.000000e-02;stroke-miterlimit:10;}
</style>
<g id="Layer_1">
	<polyline class="st0" points="447.2,21 184.2,20.8 223.5,60 223.5,100.2 183.7,100.2 183.6,140.2 182.5,140.2 182.5,179.6 	"/>
	<path class="st0" d="M25.4,192.9c0.1,60.6,0.1,120.2,0,180.6"/>
	<path class="st0" d="M183.6,140.2c-12.9-0.4-25.7-0.4-38.6-0.6c-0.1,0.8,0,1.7,0.4,2.4c0.5-0.8,0.5-1.9-0.4-2.4
		c-1.4,13.4,3.1,27.8-1.4,41c-13.2,12.1-24.3,26.5-38.6,37.5c-13.2,2.2-25.4,0-38.6,1.1c-12.1-6.6-19.9-21-30.8-29.5"/>
	<path class="st0" d="M172,219.3h-16.5c-0.6,0-1-0.4-1-1v-0.2c0-0.6,0.4-1,1-1H172c0.6,0,1,0.4,1,1v0.2
		C173,218.9,172.5,219.3,172,219.3z"/>
	<path class="st0" d="M172,244.4h-16.5c-0.6,0-1-0.4-1-1v-0.2c0-0.6,0.4-1,1-1H172c0.6,0,1,0.4,1,1v0.2
		C173,244,172.5,244.4,172,244.4z"/>
	<path class="st0" d="M171.3,233.5c0-0.6-2.4-1.1-5.5-1.3c-0.4,0-0.6-0.4-0.5-0.8c0.3-0.8,0.4-1.7,0.4-2.8c0-1.2-0.2-2.3-0.5-3
		c-0.1-0.3,0.1-0.7,0.5-0.7c1.3-0.1,2.1-0.2,2.1-0.3c0-0.2-1.8-0.3-3.9-0.3c-2.2,0-3.9,0.2-3.9,0.3c0,0.1,0.8,0.2,2.1,0.3
		c0.4,0,0.7,0.4,0.5,0.8c-0.3,0.8-0.5,1.8-0.5,3c0,1.1,0.2,2,0.4,2.8c0.1,0.4-0.1,0.8-0.5,0.8c-3.2,0.1-5.5,0.7-5.5,1.3"/>
	<path class="st0" d="M223.5,151.6v16.5c0,0.6-0.4,1-1,1h-0.2c-0.6,0-1-0.4-1-1v-16.5c0-0.6,0.4-1,1-1h0.2
		C223,150.6,223.5,151.1,223.5,151.6z"/>
	<path class="st0" d="M248.6,151.6v16.5c0,0.6-0.5,1-1,1h-0.2c-0.6,0-1-0.4-1-1v-16.5c0-0.6,0.4-1,1-1h0.2
		C248.1,150.6,248.6,151.1,248.6,151.6z"/>
	<path class="st0" d="M237.6,152.3c-0.6,0-1.1,2.4-1.3,5.5c0,0.4-0.4,0.6-0.8,0.5c-0.8-0.3-1.7-0.4-2.8-0.4c-1.2,0-2.3,0.2-3,0.5
		c-0.3,0.1-0.7-0.1-0.7-0.5c-0.1-1.3-0.2-2.1-0.3-2.1c-0.2,0-0.3,1.8-0.3,3.9c0,2.2,0.2,3.9,0.3,3.9c0.1,0,0.2-0.8,0.3-2.1
		c0-0.4,0.4-0.7,0.8-0.5c0.8,0.3,1.8,0.5,3,0.5c1.1,0,2-0.2,2.8-0.4c0.4-0.1,0.8,0.1,0.8,0.5c0.1,3.2,0.7,5.5,1.3,5.5"/>
	<polyline class="st0" points="781.2,26.5 747.6,60 747.6,100.2 787.4,100.2 787.4,140.2 788.5,140.2 788.5,179.6 	"/>
	<line class="st0" x1="447.2" y1="21" x2="776.4" y2="20.8"/>
	<polyline class="st0" points="787.4,140.2 826.1,139.6 826.1,179.5 827.2,179.6 866.2,219.6 905.9,219.6 945.6,179.9 	"/>
	<path class="st0" d="M799.1,219.3h16.5c0.5,0,1-0.4,1-1v-0.2c0-0.6-0.5-1-1-1h-16.5c-0.6,0-1,0.4-1,1v0.2
		C798.1,218.9,798.5,219.3,799.1,219.3z"/>
	<path class="st0" d="M799.1,244.4h16.5c0.5,0,1-0.4,1-1v-0.2c0-0.6-0.5-1-1-1h-16.5c-0.6,0-1,0.4-1,1v0.2
		C798.1,244,798.5,244.4,799.1,244.4z"/>
	<path class="st0" d="M799.7,233.5c0-0.6,2.4-1.1,5.5-1.3c0.4,0,0.6-0.4,0.5-0.8c-0.3-0.8-0.4-1.7-0.4-2.8c0-1.2,0.2-2.3,0.5-3
		c0.1-0.3-0.1-0.7-0.5-0.7c-1.3-0.1-2.1-0.2-2.1-0.3c0-0.2,1.8-0.3,3.9-0.3c2.2,0,3.9,0.2,3.9,0.3c0,0.1-0.8,0.2-2.1,0.3
		c-0.4,0-0.7,0.4-0.5,0.8c0.3,0.8,0.5,1.8,0.5,3c0,1.1-0.2,2-0.4,2.8c-0.1,0.4,0.1,0.8,0.5,0.8c3.2,0.1,5.5,0.7,5.5,1.3"/>
	<path class="st0" d="M747.6,151.6v16.5c0,0.6,0.5,1,1,1h0.2c0.5,0,1-0.4,1-1v-16.5c0-0.6-0.5-1-1-1h-0.2
		C748,150.6,747.6,151.1,747.6,151.6z"/>
	<path class="st0" d="M722.5,151.6v16.5c0,0.6,0.5,1,1,1h0.2c0.5,0,1-0.4,1-1v-16.5c0-0.6-0.5-1-1-1h-0.2
		C722.9,150.6,722.5,151.1,722.5,151.6z"/>
	<path class="st0" d="M733.4,152.3c0.6,0,1.1,2.4,1.3,5.5c0,0.4,0.4,0.6,0.8,0.5c0.8-0.3,1.7-0.4,2.8-0.4c1.2,0,2.3,0.2,3,0.5
		c0.3,0.1,0.7-0.1,0.7-0.5c0.1-1.3,0.2-2.1,0.3-2.1c0.2,0,0.3,1.8,0.3,3.9c0,2.2-0.2,3.9-0.3,3.9c-0.1,0-0.2-0.8-0.3-2.1
		c0-0.4-0.4-0.7-0.8-0.5c-0.8,0.3-1.8,0.5-3,0.5c-1.1,0-2-0.2-2.8-0.4c-0.4-0.1-0.8,0.1-0.8,0.5c-0.1,3.2-0.7,5.5-1.3,5.5"/>
	<polyline class="st0" points="788.5,179.6 787,179.6 786.8,140.2 	"/>
	<path class="st0" d="M441.5,59.1h-0.9c-2.5,0-4.5-2-4.5-4.5v0c0-2.5,2-4.5,4.5-4.5c0,0,13.6-2,37.4-2c23.9,0,40.4,2,40.4,2
		c2.5,0,4.5,2,4.5,4.5v0c0,2.5-2,4.5-4.5,4.5h-1.7"/>
	<line class="st0" x1="517.3" y1="59.1" x2="517.3" y2="60.4"/>
	<line class="st0" x1="442" y1="59.1" x2="442" y2="60.1"/>
	<polyline class="st0" points="189.8,680.3 223.4,646.6 223.4,606.5 183.6,606.5 183.5,566.5 182.4,566.5 182.4,527.1 	"/>
	<line class="st0" x1="448.8" y1="685.7" x2="194.4" y2="685.9"/>
	<polyline class="st0" points="183.5,566.5 144.9,567.1 144.9,527.2 143.8,527.1 104.8,487.1 65,487.1 25.3,526.8 25.4,373.4 	"/>
	<path class="st0" d="M171.9,487.3h-16.5c-0.6,0-1,0.4-1,1v0.2c0,0.6,0.4,1,1,1h16.5c0.5,0,1-0.4,1-1v-0.2
		C172.9,487.8,172.5,487.3,171.9,487.3z"/>
	<path class="st0" d="M171.9,462.2h-16.5c-0.6,0-1,0.4-1,1v0.2c0,0.6,0.4,1,1,1h16.5c0.5,0,1-0.4,1-1v-0.2
		C172.9,462.7,172.5,462.2,171.9,462.2z"/>
	<path class="st0" d="M171.2,473.2c0,0.6-2.4,1.1-5.5,1.3c-0.4,0-0.6,0.4-0.5,0.8c0.3,0.8,0.4,1.7,0.4,2.8c0,1.2-0.2,2.3-0.5,3
		c-0.1,0.3,0.1,0.7,0.5,0.7c1.3,0.1,2.1,0.2,2.1,0.3c0,0.2-1.8,0.3-3.9,0.3c-2.2,0-3.9-0.2-3.9-0.3c0-0.1,0.8-0.2,2.1-0.3
		c0.4,0,0.7-0.4,0.5-0.8c-0.3-0.8-0.5-1.8-0.5-3c0-1.1,0.2-2,0.4-2.8c0.1-0.4-0.1-0.8-0.5-0.8c-3.2-0.1-5.5-0.7-5.5-1.3"/>
	<path class="st0" d="M223.4,555v-16.5c0-0.5-0.4-1-1-1h-0.2c-0.5,0-1,0.5-1,1V555c0,0.5,0.5,1,1,1h0.2
		C222.9,556,223.4,555.6,223.4,555z"/>
	<path class="st0" d="M248.5,555v-16.5c0-0.5-0.4-1-1-1h-0.2c-0.5,0-1,0.5-1,1V555c0,0.5,0.5,1,1,1h0.2
		C248,556,248.5,555.6,248.5,555z"/>
	<path class="st0" d="M237.5,554.4c-0.6,0-1.1-2.4-1.3-5.5c0-0.4-0.4-0.6-0.8-0.5c-0.8,0.3-1.7,0.4-2.8,0.4c-1.2,0-2.3-0.2-3-0.5
		c-0.3-0.1-0.7,0.1-0.7,0.5c-0.1,1.3-0.2,2.1-0.3,2.1c-0.2,0-0.3-1.8-0.3-3.9c0-2.2,0.2-3.9,0.3-3.9c0.1,0,0.2,0.8,0.3,2.1
		c0,0.4,0.4,0.7,0.8,0.5c0.8-0.3,1.8-0.5,3-0.5c1.1,0,2,0.2,2.8,0.4c0.4,0.1,0.8-0.1,0.8-0.5c0.1-3.2,0.7-5.5,1.3-5.5"/>
	<polyline class="st0" points="182.4,527.1 183.9,527.1 184.2,566.5 	"/>
	<polyline class="st0" points="448.8,685.7 786.5,686.2 747.3,646.9 747.3,606.8 787.1,606.8 787.2,566.8 788.3,566.8 788.3,527.4 	
		"/>
	<line class="st0" x1="945.4" y1="517.1" x2="945.6" y2="179.9"/>
	<polyline class="st0" points="787.2,566.8 825.8,567.4 825.8,527.5 826.9,527.4 865.9,487.4 905.6,487.4 939.2,521 	"/>
	<path class="st0" d="M798.8,487.6h16.5c0.6,0,1,0.5,1,1v0.2c0,0.5-0.4,1-1,1h-16.5c-0.5,0-1-0.5-1-1v-0.2
		C797.8,488.1,798.2,487.6,798.8,487.6z"/>
	<path class="st0" d="M798.8,462.5h16.5c0.6,0,1,0.5,1,1v0.2c0,0.5-0.4,1-1,1h-16.5c-0.5,0-1-0.5-1-1v-0.2
		C797.8,463,798.2,462.5,798.8,462.5z"/>
	<path class="st0" d="M799.5,473.5c0,0.6,2.4,1.1,5.5,1.3c0.4,0,0.6,0.4,0.5,0.8c-0.3,0.8-0.4,1.7-0.4,2.8c0,1.2,0.2,2.3,0.5,3
		c0.1,0.3-0.1,0.7-0.5,0.7c-1.3,0.1-2.1,0.2-2.1,0.3c0,0.2,1.8,0.3,3.9,0.3c2.2,0,3.9-0.2,3.9-0.3c0-0.1-0.8-0.2-2.1-0.3
		c-0.4,0-0.7-0.4-0.5-0.8c0.3-0.8,0.5-1.8,0.5-3c0-1.1-0.2-2-0.4-2.8c-0.1-0.4,0.1-0.8,0.5-0.8c3.2-0.1,5.5-0.7,5.5-1.3"/>
	<path class="st0" d="M747.3,555.3v-16.5c0-0.6,0.5-1,1-1h0.2c0.5,0,1,0.4,1,1v16.5c0,0.5-0.5,1-1,1h-0.2
		C747.8,556.3,747.3,555.9,747.3,555.3z"/>
	<path class="st0" d="M722.2,555.3v-16.5c0-0.6,0.5-1,1-1h0.2c0.5,0,1,0.4,1,1v16.5c0,0.5-0.5,1-1,1h-0.2
		C722.7,556.3,722.2,555.9,722.2,555.3z"/>
	<path class="st0" d="M733.2,554.6c0.6,0,1.1-2.4,1.3-5.5c0-0.4,0.4-0.6,0.8-0.5c0.8,0.3,1.7,0.4,2.8,0.4c1.2,0,2.3-0.2,3-0.5
		c0.3-0.1,0.7,0.1,0.7,0.5c0.1,1.3,0.2,2.1,0.3,2.1c0.2,0,0.3-1.8,0.3-3.9c0-2.2-0.2-3.9-0.3-3.9c-0.1,0-0.2,0.8-0.3,2.1
		c0,0.4-0.4,0.7-0.8,0.5c-0.8-0.3-1.8-0.5-3-0.5c-1.1,0-2,0.2-2.8,0.4c-0.4,0.1-0.8-0.1-0.8-0.5c-0.1-3.2-0.7-5.5-1.3-5.5"/>
	<polyline class="st0" points="788.3,527.4 786.8,527.4 786.5,566.8 	"/>
	<path class="st0" d="M225.2,393.7v-81.5c0-0.4-0.3-0.7-0.7-0.7h-1.8c-0.4,0-0.7,0.3-0.7,0.7v81.5c0,0.4,0.3,0.7,0.7,0.7h1.8
		C224.9,394.4,225.2,394.1,225.2,393.7z"/>
	<path class="st0" d="M64,391v0.9c0,2.5-2,4.5-4.5,4.5h0c-2.5,0-4.5-2-4.5-4.5c0,0-2-13.6-2-37.4s2-40.4,2-40.4c0-2.5,2-4.5,4.5-4.5
		h0c2.5,0,4.5,2,4.5,4.5v1.7"/>
	<line class="st0" x1="64" y1="315.3" x2="65.4" y2="315.3"/>
	<line class="st0" x1="64" y1="390.6" x2="65" y2="390.6"/>
	<path class="st0" d="M746.3,393.7v-81.5c0-0.4,0.3-0.7,0.7-0.7h1.8c0.4,0,0.7,0.3,0.7,0.7v81.5c0,0.4-0.3,0.7-0.7,0.7H747
		C746.6,394.4,746.3,394.1,746.3,393.7z"/>
	<path class="st0" d="M907.5,391v0.9c0,2.5,2,4.5,4.5,4.5h0c2.5,0,4.5-2,4.5-4.5c0,0,2-13.6,2-37.4s-2-40.4-2-40.4
		c0-2.5-2-4.5-4.5-4.5h0c-2.5,0-4.5,2-4.5,4.5v1.7"/>
	<line class="st0" x1="907.5" y1="315.3" x2="906.1" y2="315.3"/>
	<line class="st0" x1="907.5" y1="390.6" x2="906.5" y2="390.6"/>
	<path class="st0" d="M520.9,486.7h-81.5c-0.4,0-0.7,0.3-0.7,0.7v1.8c0,0.4,0.3,0.7,0.7,0.7h81.5c0.4,0,0.7-0.3,0.7-0.7v-1.8
		C521.6,487,521.3,486.7,520.9,486.7z"/>
	<path class="st0" d="M518.2,647.9h0.9c2.5,0,4.5,2,4.5,4.5l0,0c0,2.5-2,4.5-4.5,4.5c0,0-13.6,2-37.4,2s-40.4-2-40.4-2
		c-2.5,0-4.5-2-4.5-4.5l0,0c0-2.5,2-4.5,4.5-4.5h1.7"/>
	<line class="st0" x1="442.5" y1="647.9" x2="442.5" y2="646.5"/>
	<line class="st0" x1="517.7" y1="647.9" x2="517.7" y2="646.9"/>
	<path class="st0" d="M316.3,605.2h-0.9c-2.5,0-4.5-2-4.5-4.5l0,0c0-2.5,2-4.5,4.5-4.5c0,0,13.6-2,37.4-2s40.4,2,40.4,2
		c2.5,0,4.5,2,4.5,4.5l0,0c0,2.5-2,4.5-4.5,4.5h-1.7"/>
	<line class="st0" x1="392" y1="605.2" x2="392" y2="606.6"/>
	<line class="st0" x1="316.8" y1="605.2" x2="316.8" y2="606.2"/>
	<path class="st0" d="M590,605.2h-0.9c-2.5,0-4.5-2-4.5-4.5l0,0c0-2.5,2-4.5,4.5-4.5c0,0,13.6-2,37.4-2s40.4,2,40.4,2
		c2.5,0,4.5,2,4.5,4.5l0,0c0,2.5-2,4.5-4.5,4.5h-1.7"/>
	<line class="st0" x1="665.7" y1="605.2" x2="665.7" y2="606.6"/>
	<line class="st0" x1="590.4" y1="605.2" x2="590.4" y2="606.2"/>
	<path class="st0" d="M316.3,101.5h-0.9c-2.5,0-4.5,2-4.5,4.5v0c0,2.5,2,4.5,4.5,4.5c0,0,13.6,2,37.4,2s40.4-2,40.4-2
		c2.5,0,4.5-2,4.5-4.5v0c0-2.5-2-4.5-4.5-4.5h-1.7"/>
	<line class="st0" x1="392" y1="101.5" x2="392" y2="100.2"/>
	<line class="st0" x1="316.8" y1="101.5" x2="316.8" y2="100.5"/>
	<path class="st0" d="M590,101.5h-0.9c-2.5,0-4.5,2-4.5,4.5v0c0,2.5,2,4.5,4.5,4.5c0,0,13.6,2,37.4,2s40.4-2,40.4-2
		c2.5,0,4.5-2,4.5-4.5v0c0-2.5-2-4.5-4.5-4.5h-1.7"/>
	<line class="st0" x1="665.7" y1="101.5" x2="665.7" y2="100.2"/>
	<line class="st0" x1="590.4" y1="101.5" x2="590.4" y2="100.5"/>
	<path class="st0" d="M520.6,216.7h-81.5c-0.4,0-0.7,0.3-0.7,0.7v1.8c0,0.4,0.3,0.7,0.7,0.7h81.5c0.4,0,0.7-0.3,0.7-0.7v-1.8
		C521.2,217,520.9,216.7,520.6,216.7z"/>
	<g>
		<g>
			<path class="st0" d="M926.4,703.9c0.4-0.7,0.7-1.5,0.7-2.4c0-2.5-2.1-4.6-4.6-4.6c-1.6,0-3,0.8-3.9,2.1h-41.3
				c-1-2.7-3.6-4.6-6.7-4.6c-3.1,0-5.7,1.9-6.7,4.6H825H774c-1-2.7-3.6-4.6-6.7-4.6c-3.1,0-5.7,1.9-6.7,4.6h-41.3
				c-0.8-1.3-2.2-2.1-3.9-2.1c0,0,0,0,0,0"/>
			<path class="st0" d="M712.1,698.3c-0.8,0.8-1.3,2-1.3,3.2c0,2.5,2.1,4.6,4.6,4.6c1.6,0,3-0.8,3.9-2.1h41.3c1,2.7,3.6,4.6,6.7,4.6
				s5.7-1.9,6.7-4.6H825H864c1,2.7,3.6,4.6,6.7,4.6c3.1,0,5.7-1.9,6.7-4.6h41.3c0.8,1.3,2.2,2.1,3.9,2.1c0.4,0,0.8-0.1,1.2-0.2"/>
		</g>
		<g>
			<path class="st0" d="M480.6,706.9c0.4-0.7,0.7-1.5,0.7-2.4c0-2.5-2.1-4.6-4.6-4.6c-1.6,0-3,0.8-3.9,2.1h-41.3
				c-1-2.7-3.6-4.6-6.7-4.6s-5.7,1.9-6.7,4.6h-38.9h-51.1c-1-2.7-3.6-4.6-6.7-4.6s-5.7,1.9-6.7,4.6h-41.3c-0.8-1.3-2.2-2.1-3.9-2.1
				c0,0,0,0,0,0"/>
			<path class="st0" d="M266.4,701.3c-0.8,0.8-1.3,2-1.3,3.2c0,2.5,2.1,4.6,4.6,4.6c1.6,0,3-0.8,3.9-2.1h41.3c1,2.7,3.6,4.6,6.7,4.6
				c3.1,0,5.7-1.9,6.7-4.6h51.1h38.9c1,2.7,3.6,4.6,6.7,4.6s5.7-1.9,6.7-4.6h41.3c0.8,1.3,2.2,2.1,3.9,2.1c0.4,0,0.8-0.1,1.2-0.2"/>
		</g>
		<g>
			<path class="st0" d="M703,704.2c0.4-0.7,0.7-1.5,0.7-2.4c0-2.5-2.1-4.6-4.6-4.6c-1.6,0-3,0.8-3.9,2.1H654c-1-2.7-3.6-4.6-6.7-4.6
				c-3.1,0-5.7,1.9-6.7,4.6h-38.9h-51.1c-1-2.7-3.6-4.6-6.7-4.6c-3.1,0-5.7,1.9-6.7,4.6h-41.3c-0.8-1.3-2.2-2.1-3.9-2.1c0,0,0,0,0,0
				"/>
			<path class="st0" d="M488.8,698.6c-0.8,0.8-1.3,2-1.3,3.2c0,2.5,2.1,4.6,4.6,4.6c1.6,0,3-0.8,3.9-2.1h41.3c1,2.7,3.6,4.6,6.7,4.6
				s5.7-1.9,6.7-4.6h51.1h38.9c1,2.7,3.6,4.6,6.7,4.6c3.1,0,5.7-1.9,6.7-4.6h41.3c0.8,1.3,2.2,2.1,3.9,2.1c0.4,0,0.8-0.1,1.2-0.2"/>
		</g>
		<g>
			<path class="st0" d="M257.3,707.2c0.4-0.7,0.7-1.5,0.7-2.4c0-2.5-2.1-4.6-4.6-4.6c-1.6,0-3,0.8-3.9,2.1h-41.3
				c-1-2.7-3.6-4.6-6.7-4.6s-5.7,1.9-6.7,4.6h-38.9h-51.1c-1-2.7-3.6-4.6-6.7-4.6s-5.7,1.9-6.7,4.6H50.2c-0.8-1.3-2.2-2.1-3.9-2.1
				c0,0,0,0,0,0"/>
			<path class="st0" d="M43,701.6c-0.8,0.8-1.3,2-1.3,3.2c0,2.5,2.1,4.6,4.6,4.6c1.6,0,3-0.8,3.9-2.1h41.3c1,2.7,3.6,4.6,6.7,4.6
				c3.1,0,5.7-1.9,6.7-4.6h51.1h38.9c1,2.7,3.6,4.6,6.7,4.6s5.7-1.9,6.7-4.6h41.3c0.8,1.3,2.2,2.1,3.9,2.1c0.4,0,0.8-0.1,1.2-0.2"/>
		</g>
		<g>
			<g>
				<g>
					<g>
						<path class="st0" d="M897,94.6c-0.5,0-0.8-0.4-0.8-0.8c0-0.5,0.4-0.8,0.8-0.8c0.5,0,0.8,0.4,0.8,0.8
							C897.9,94.3,897.5,94.6,897,94.6z"/>
					</g>
				</g>
				<g>
					<path class="st0" d="M899.7,115.6c0.7-0.7,3.7-5.5,3.7-8.8c0-5-3.7-7.8-3.7-7.8s-3.7,2.8-3.7,7.8
						C896,110.1,899,114.9,899.7,115.6L899.7,115.6z"/>
					<g>
						<path class="st0" d="M902.3,94.6c0.5,0,0.8-0.4,0.8-0.8c0-0.5-0.4-0.8-0.8-0.8c-0.5,0-0.8,0.4-0.8,0.8
							C901.4,94.3,901.8,94.6,902.3,94.6z"/>
						<path class="st0" d="M897,94.7c-4.1,2.2-5,5.6-5.1,10.1c-0.1,6.4,4.6,13.3,7,16.5c-0.3,0.2-0.5,0.5-0.5,0.9
							c0,0.2,0,0.3,0.1,0.5c-0.5,0.3-0.9,0.9-0.9,1.6c0,1.1,0.9,1.9,1.9,1.9c1.1,0,1.9-0.9,1.9-1.9c0-0.7-0.4-1.3-0.9-1.6
							c0.1-0.1,0.1-0.3,0.1-0.5c0-0.4-0.2-0.7-0.4-0.9c2.4-3.1,7.1-10.1,7-16.5c-0.1-4.5-1-7.9-5.1-10.1"/>
					</g>
				</g>
			</g>
			<g>
				<g>
					<g>
						<path class="st0" d="M928.4,140.2c0.2-0.4,0.7-0.5,1.1-0.3c0.4,0.2,0.5,0.7,0.3,1.1c-0.2,0.4-0.7,0.5-1.1,0.3
							C928.3,141.1,928.2,140.6,928.4,140.2z"/>
					</g>
				</g>
				<g>
					<path class="st0" d="M909,131.9c0.3,1,2.9,6,5.7,7.6c4.3,2.6,8.6,0.7,8.6,0.7s-0.5-4.6-4.9-7.1
						C915.6,131.5,910,131.6,909,131.9L909,131.9z"/>
					<g>
						<path class="st0" d="M926.9,144.4c-0.4-0.2-0.9-0.1-1.1,0.3c-0.2,0.4-0.1,0.9,0.3,1.1c0.4,0.2,0.9,0.1,1.1-0.3
							C927.5,145.1,927.3,144.6,926.9,144.4z"/>
						<path class="st0" d="M928.4,140.2c0.2-4.6-2.3-7.2-6.1-9.5c-5.4-3.3-13.8-2.7-17.8-2.3c-0.1-0.3-0.2-0.6-0.5-0.8
							c-0.1-0.1-0.3-0.1-0.5-0.1c0-0.6-0.4-1.2-0.9-1.6c-0.9-0.5-2.1-0.2-2.6,0.7c-0.5,0.9-0.2,2.1,0.7,2.6c0.6,0.3,1.3,0.3,1.9,0
							c0.1,0.1,0.2,0.2,0.3,0.3c0.3,0.2,0.7,0.2,1,0.1c1.5,3.6,5.1,11.2,10.7,14.4c3.9,2.2,7.3,3.1,11.3,0.7"/>
					</g>
				</g>
			</g>
			<g>
				<g>
					<g>
						<path class="st0" d="M873.2,144.3c0.2,0.4,0.1,0.9-0.3,1.1c-0.4,0.2-0.9,0.1-1.1-0.3c-0.2-0.4-0.1-0.9,0.3-1.1
							C872.5,143.7,873,143.9,873.2,144.3z"/>
					</g>
				</g>
				<g>
					<path class="st0" d="M890.2,131.7c-0.9-0.3-6.6-0.5-9.5,1.1c-4.4,2.4-5,7.1-5,7.1s4.2,1.9,8.6-0.6
						C887.2,137.7,890,132.7,890.2,131.7L890.2,131.7z"/>
					<path class="st0" d="M952.6,157.4L952.6,157.4c0.7-1.2-0.6-3.8-3.2-5.3c-2.3-1.3-4.7-1-5.4-1.4s-5.2-6.6-7.9-11.6
						c-4.1-7.8-5.8-12.5-26.7-18.3c5.5-20.9,2.3-24.8-2.3-32.3c-3-4.8-6-11.9-6-12.6s1.5-2.7,1.5-5.3c0-3-1.6-5.4-3-5.4h0
						c-1.4,0-2.9,2.5-3,5.4c0,2.6,1.5,4.6,1.5,5.3s-3.1,7.9-6,12.6c-4.7,7.5-7.9,11.4-2.3,32.3c-21,5.4-22.6,10-26.9,17.7
						c-2.7,4.9-7.5,11.1-8.1,11.5s-3.1,0-5.4,1.3c-2.6,1.5-3.9,4-3.3,5.2l0,0c0.7,1.2,3.6,1.4,6.2-0.1c2.3-1.3,3.2-3.6,3.9-3.9
						c0.6-0.3,8.3-1.2,14-0.9c8.8,0.4,13.9,1.3,29.4-13.8v0c15.3,15.4,20.1,14.5,29,14.2c5.6-0.1,13.3,0.8,14,1.2
						c0.6,0.3,1.5,2.7,3.8,4"/>
					<g>
						<path class="st0" d="M869.5,139.4c-0.4,0.2-0.5,0.7-0.3,1.1c0.2,0.4,0.7,0.5,1.1,0.3c0.4-0.2,0.5-0.7,0.3-1.1
							C870.4,139.3,869.9,139.2,869.5,139.4z"/>
						<path class="st0" d="M873.3,144.3c3.9,2.5,7.4,1.6,11.3-0.5c5.6-3,9.3-10.5,10.9-14.2c0.3,0.1,0.7,0.1,1,0
							c0.1-0.1,0.3-0.2,0.4-0.3c0.6,0.3,1.2,0.3,1.8,0c0.9-0.5,1.3-1.7,0.7-2.6c-0.5-0.9-1.7-1.3-2.6-0.7c-0.6,0.3-0.9,0.9-1,1.6
							c-0.2,0-0.3,0.1-0.4,0.1c-0.3,0.2-0.5,0.5-0.5,0.8c-3.9-0.5-12.3-1.2-17.8,2c-3.9,2.2-6.4,4.8-6.3,9.4"/>
					</g>
				</g>
			</g>
		</g>
		<g>
			<g>
				<g>
					<g>
						<path class="st0" d="M848,122.9c0.5,0,0.8,0.4,0.8,0.8c0,0.5-0.4,0.8-0.8,0.8c-0.5,0-0.8-0.4-0.8-0.8
							C847.2,123.3,847.6,122.9,848,122.9z"/>
					</g>
				</g>
				<g>
					<path class="st0" d="M845.4,102c-0.7,0.7-3.7,5.5-3.7,8.8c0,5,3.7,7.8,3.7,7.8s3.7-2.8,3.7-7.8
						C849.1,107.5,846.1,102.7,845.4,102L845.4,102z"/>
					<g>
						<path class="st0" d="M842.8,122.9c-0.5,0-0.8,0.4-0.8,0.8c0,0.5,0.4,0.8,0.8,0.8c0.5,0,0.8-0.4,0.8-0.8
							C843.7,123.3,843.3,122.9,842.8,122.9z"/>
						<path class="st0" d="M848,122.9c4.1-2.2,5-5.6,5.1-10.1c0.1-6.4-4.6-13.3-7-16.5c0.3-0.2,0.5-0.5,0.5-0.9c0-0.2,0-0.3-0.1-0.5
							c0.5-0.3,0.9-0.9,0.9-1.6c0-1.1-0.9-1.9-1.9-1.9s-1.9,0.9-1.9,1.9c0,0.7,0.4,1.3,0.9,1.6c-0.1,0.1-0.1,0.3-0.1,0.5
							c0,0.4,0.2,0.7,0.4,0.9c-2.4,3.1-7.1,10.1-7,16.5c0.1,4.5,1,7.9,5.1,10.1"/>
					</g>
				</g>
			</g>
			<g>
				<g>
					<g>
						<path class="st0" d="M816.7,77.3c-0.2,0.4-0.7,0.5-1.1,0.3c-0.4-0.2-0.5-0.7-0.3-1.1c0.2-0.4,0.7-0.5,1.1-0.3
							C816.8,76.4,816.9,77,816.7,77.3z"/>
					</g>
				</g>
				<g>
					<path class="st0" d="M836.1,85.7c-0.3-1-2.9-6-5.7-7.6c-4.3-2.6-8.6-0.7-8.6-0.7s0.5,4.6,4.9,7.1
						C829.4,86.1,835.1,85.9,836.1,85.7L836.1,85.7z"/>
					<g>
						<path class="st0" d="M818.2,73.1c0.4,0.2,0.9,0.1,1.1-0.3c0.2-0.4,0.1-0.9-0.3-1.1c-0.4-0.2-0.9-0.1-1.1,0.3
							C817.6,72.4,817.8,72.9,818.2,73.1z"/>
						<path class="st0" d="M816.7,77.4c-0.2,4.6,2.3,7.2,6.1,9.5c5.4,3.3,13.8,2.7,17.8,2.3c0.1,0.3,0.2,0.6,0.5,0.8
							c0.1,0.1,0.3,0.1,0.5,0.1c0,0.6,0.4,1.2,0.9,1.6c0.9,0.5,2.1,0.2,2.6-0.7c0.5-0.9,0.2-2.1-0.7-2.6c-0.6-0.3-1.3-0.3-1.9,0
							c-0.1-0.1-0.2-0.2-0.3-0.3c-0.3-0.2-0.7-0.2-1-0.1c-1.5-3.6-5.1-11.2-10.7-14.4c-3.9-2.2-7.3-3.1-11.3-0.7"/>
					</g>
				</g>
			</g>
			<g>
				<g>
					<g>
						<path class="st0" d="M871.8,73.3c-0.2-0.4-0.1-0.9,0.3-1.1c0.4-0.2,0.9-0.1,1.1,0.3c0.2,0.4,0.1,0.9-0.3,1.1
							C872.6,73.8,872.1,73.7,871.8,73.3z"/>
					</g>
				</g>
				<g>
					<path class="st0" d="M854.9,85.8c0.9,0.3,6.6,0.5,9.5-1.1c4.4-2.4,5-7.1,5-7.1s-4.2-1.9-8.6,0.6
						C857.9,79.9,855.1,84.9,854.9,85.8L854.9,85.8z"/>
					<path class="st0" d="M892.7,61.2c-2.3,1.3-3.2,3.6-3.9,3.9c-0.6,0.3-8.3,1.2-14,0.9c-8.8-0.4-13.9-1.3-29.4,13.8v0
						c-15.3-15.4-20.1-14.5-29-14.2c-5.6,0.1-13.3-0.8-14-1.2c-0.6-0.3-1.5-2.7-3.8-4c-2.6-1.5-5.5-1.4-6.2-0.2l0,0
						c-0.7,1.2,0.6,3.8,3.2,5.3c2.3,1.3,4.7,1,5.4,1.4c0.6,0.4,5.2,6.6,7.9,11.6c4.1,7.8,5.8,12.5,26.7,18.3
						c-5.5,20.9-2.3,24.8,2.3,32.3c3,4.8,6,11.9,6,12.6c0,0.7-1.5,2.7-1.5,5.3c0,3,1.6,5.4,3,5.4h0c1.4,0,2.9-2.5,3-5.4
						c0-2.6-1.5-4.6-1.5-5.3c0-0.7,3.1-7.9,6-12.6c4.7-7.5,7.9-11.4,2.3-32.3c21-5.4,22.6-10,26.9-17.7c2.7-4.9,7.5-11.1,8.1-11.5
						c0.6-0.4,3.1,0,5.4-1.3c2.6-1.5,3.9-4,3.3-5.2"/>
					<g>
						<path class="st0" d="M875.5,78.1c0.4-0.2,0.5-0.7,0.3-1.1c-0.2-0.4-0.7-0.5-1.1-0.3c-0.4,0.2-0.5,0.7-0.3,1.1
							C874.6,78.2,875.2,78.4,875.5,78.1z"/>
						<path class="st0" d="M871.8,73.3c-3.9-2.5-7.4-1.6-11.3,0.5c-5.6,3-9.3,10.5-10.9,14.2c-0.3-0.1-0.7-0.1-1,0
							c-0.1,0.1-0.3,0.2-0.4,0.3c-0.6-0.3-1.2-0.3-1.8,0c-0.9,0.5-1.3,1.7-0.7,2.6c0.5,0.9,1.7,1.3,2.6,0.7c0.6-0.3,0.9-0.9,1-1.6
							c0.2,0,0.3-0.1,0.4-0.1c0.3-0.2,0.5-0.5,0.5-0.8c3.9,0.5,12.3,1.2,17.8-2c3.9-2.2,6.4-4.8,6.3-9.4"/>
					</g>
				</g>
			</g>
		</g>
	</g>
	<path class="st0" d="M946.7,542.6c0,0-0.1,0-0.1-0.1c-11.3-4.3-21.2-5.2-30.1-3.8c-4.9,0.7-9.5,2.2-13.9,4
		c-7.2,1.6-14,4.3-20.5,7.6c-4.8,1.6-9.5,3.5-14.1,5.6c-0.1,0.1-0.2,0.1-0.3,0.2c-2,0.8-3.8,1.6-5.3,2.6c-0.2,0.1-0.3,0.2-0.4,0.3
		c-10.1,6.5-10.9,17-11.4,27.4c-1.1-0.6-2.3-0.8-3.5-0.6 M799.5,690.5c0.4-0.1,0.6-0.4,0.8-0.7l0,0c0.9-1.8,1.3-2.7,4.2-1.6
		c0,0,0.1,0,0.1,0c0,0,0.1,0,0.1,0c0,0,0.1,0,0.1,0c0,0,0.1,0,0.1,0c0,0,0.1,0,0.1,0c0,0,0.1,0,0.1,0c0,0,0.1,0,0.1,0
		c0,0,0.1,0,0.1,0c0,0,0,0,0.1,0c0,0,0,0,0,0c0,0,0,0,0.1,0c0,0,0.1,0,0.1-0.1c0,0,0,0,0.1,0c0,0,0,0,0.1-0.1c0,0,0.1-0.1,0.1-0.1
		c0,0,0,0,0.1-0.1c0,0,0,0,0.1-0.1c0,0,0-0.1,0.1-0.1c0,0,0,0,0-0.1c0,0,0-0.1,0-0.1c0,0,0,0,0-0.1c1.3-2.7,2.1-4.5,6.5-3.6
		c0,0,0.1,0,0.1,0c0,0,0.1,0,0.1,0c0,0,0,0,0.1,0c0,0,0.1,0,0.1,0c0,0,0.1,0,0.1,0c0,0,0,0,0,0c0,0,0.1,0,0.1,0c0,0,0.1,0,0.1,0
		c0,0,0,0,0,0c0,0,0.1,0,0.1-0.1c0,0,0,0,0,0c0,0,0,0,0.1,0c0,0,0,0,0,0c0,0,0,0,0,0c0,0,0.1,0,0.1-0.1c0,0,0.1,0,0.1-0.1
		c0,0,0,0,0,0c0,0,0.1-0.1,0.1-0.1c0,0,0,0,0.1-0.1c0,0,0,0,0,0c0,0,0-0.1,0.1-0.1c0,0,0-0.1,0.1-0.1c0,0,0,0,0,0
		c1.8-3.7,3.3-6.9,7.9-8.3c0,0,0,0,0,0c0,0,0.1,0,0.1,0c0,0,0.1,0,0.1,0c0,0,0,0,0.1,0c0,0,0.1,0,0.1-0.1c0,0,0,0,0,0c0,0,0,0,0,0
		c0,0,0,0,0.1-0.1c0,0,0.1-0.1,0.1-0.1c0,0,0,0,0.1-0.1c0,0,0,0,0-0.1c0,0,0-0.1,0.1-0.1c0,0,0-0.1,0.1-0.1c0,0,0,0,0-0.1
		c0,0,0,0,0,0c2-4.2,3.8-8.1,7.8-10.9c0,0,0,0,0.1,0c0,0,0,0,0.1,0c0,0,0,0,0.1-0.1c0,0,0.1-0.1,0.1-0.1c0,0,0.1-0.1,0.1-0.1
		c0,0,0.1-0.1,0.1-0.1c0,0,0-0.1,0.1-0.1l0,0c1.6-3.4,3.2-6.7,7.2-8.3c0,0,0,0,0,0c0.1,0,0.2-0.1,0.2-0.1c0,0,0,0,0,0
		c0,0,0.1-0.1,0.1-0.1c0,0,0.1-0.1,0.1-0.1c0,0,0,0,0,0c0,0,0,0,0.1-0.1c0,0,0.1-0.1,0.1-0.1c0,0,0-0.1,0.1-0.1c0,0,0,0,0-0.1l0,0
		c1.4-2.9,2.2-4.6,7.4-2.4c0,0,0,0,0.1,0c0,0,0.1,0,0.1,0c0,0,0,0,0.1,0c0,0,0.1,0,0.1,0c0,0,0.1,0,0.1,0c0,0,0,0,0.1,0
		c0,0,0.1,0,0.1,0c0,0,0.1,0,0.1,0c0,0,0,0,0.1,0c0,0,0.1,0,0.1,0c0,0,0.1,0,0.1,0c0,0,0,0,0.1,0c0,0,0.1,0,0.1,0c0,0,0.1,0,0.1-0.1
		c0,0,0,0,0.1,0c0,0,0.1,0,0.1-0.1c0,0,0.1,0,0.1-0.1c0,0,0,0,0.1,0c0,0,0-0.1,0.1-0.1c0,0,0,0,0.1-0.1c0,0,0,0,0,0c0,0,0,0,0-0.1
		c0,0,0-0.1,0.1-0.1c0,0,0-0.1,0.1-0.1c0,0,0,0,0,0c0.6-1.4,1.3-2.8,2.2-2.9c0,0,0,0,0,0c0.1,0,0.2,0,0.4,0c2.1,1.9,4.4,3.7,6.9,5.4
		c0,0,0,0,0,0c0,0,0,0,0,0c0,0,0,0,0,0c0,0,0,0,0,0c0,0,0.1,0,0.1,0c0,0,0,0,0.1,0c0,0,0,0,0.1,0c0,0,0,0,0,0c0,0,0,0,0,0
		c0,0,0.1,0,0.1,0c0,0,0,0,0.1,0c0,0,0,0,0,0c0,0,0,0,0,0c0,0,0.1,0,0.1,0c0,0,0.1,0,0.1,0c0,0,0.1,0,0.1,0c0,0,0.1,0,0.1,0
		c0,0,0,0,0,0c0,0,0,0,0,0c0,0,0.1,0,0.1,0c0,0,0,0,0.1,0c0,0,0,0,0.1,0c0,0,0,0,0,0c0,0,0.1,0,0.1-0.1c0,0,0.1,0,0.1-0.1
		c0,0,0,0,0,0c0,0,0.1,0,0.1-0.1c0,0,0.1-0.1,0.1-0.1c0,0,0,0,0,0c0,0,0,0,0,0c0,0,0.1-0.1,0.1-0.1c0,0,0.1-0.1,0.1-0.1c0,0,0,0,0,0
		c0,0,0,0,0,0c0,0,0-0.1,0-0.1c0,0,0,0,0,0c0,0,0,0,0-0.1c0,0,0,0,0,0c0,0,0,0,0,0c0.5-1.1,1.1-2.2,1.7-2.8c2.8,2.2,5.9,4.3,9.4,6.3
		c0,0,0,0,0,0c0,0,0,0,0,0c0,0,0,0,0,0c0,0,0.1,0,0.1,0c0,0,0.1,0,0.1,0c0,0,0,0,0,0c0,0,0.1,0,0.1,0c0,0,0.1,0,0.1,0c0,0,0,0,0,0
		c0,0,0.1,0,0.1,0c0,0,0.1,0,0.1,0c0,0,0,0,0,0c0,0,0.1,0,0.1,0c0,0,0.1,0,0.1,0c0,0,0,0,0.1,0c0,0,0.1,0,0.1,0c0,0,0.1,0,0.1-0.1
		c0,0,0,0,0,0c0,0,0.1,0,0.1-0.1c0,0,0.1-0.1,0.1-0.1c0,0,0,0,0,0c0,0,0,0,0,0c0,0,0,0,0.1-0.1c0,0,0.1-0.1,0.1-0.1c0,0,0,0,0,0
		c0,0,0-0.1,0.1-0.1c0,0,0,0,0.1-0.1c0,0,0,0,0,0c0,0,0,0,0-0.1c0,0,0,0,0,0c0.8-1.7,1.5-3.1,2.7-3.4c0.3-0.1,0.7-0.1,1.2,0
		c1.9,1.1,4,2.2,6.2,3.1c0,0,0,0,0,0c0.1,0,0.2,0.1,0.2,0.1c0,0,0,0,0,0c0.1,0,0.1,0,0.2,0c0.1,0,0.2,0,0.3,0c0,0,0,0,0,0
		c0.1,0,0.1,0,0.2-0.1c0,0,0,0,0,0c0.2-0.1,0.3-0.2,0.5-0.3c0,0,0,0,0,0c0.1-0.1,0.1-0.1,0.2-0.2c0,0,0,0,0,0c0,0,0.1-0.1,0.1-0.1
		c0,0,0-0.1,0.1-0.1c0,0,0,0,0,0c0-0.1,0.1-0.2,0.1-0.2c0,0,0,0,0,0c0-0.1,0-0.1,0-0.2c0-0.1,0-0.2,0-0.3c0,0,0,0,0,0
		c0-0.1,0-0.1,0-0.2c0,0,0-0.1,0-0.1c0,0,0-0.1-0.1-0.1c0,0,0-0.1-0.1-0.1c0-0.1-0.1-0.1-0.2-0.2c0,0,0,0,0,0
		c-0.1-0.1-0.1-0.1-0.2-0.2c0,0,0,0,0,0c-2.6-1.8-4.7-3-6.5-3.4c-18.8-10.9-25.6-26.7-30.5-44c0.8,0.4,1.6,0.5,2.5,0.4
		c0.9-0.1,1.7-0.5,2.3-1.2c1.7-1.6,1.7-4.3,0-6c-1-1-2.4-1.4-3.7-1.2c-0.9,0.1-1.7,0.5-2.3,1.2c-0.2,0.2-0.4,0.4-0.5,0.7
		c-0.2-0.8-0.4-1.6-0.6-2.5c1,0.4,2.1,0.6,3.1,0.4c0.6-0.1,1.1-0.3,1.7-0.5c0.5-0.3,1-0.6,1.5-1c1.7-1.7,2.1-4.1,1.2-6.2
		c0.8,0.2,1.7,0.5,2.5,0.7c-0.2,0.2-0.5,0.3-0.7,0.5c-1.7,1.6-1.7,4.3,0,6c1,1,2.4,1.4,3.7,1.2c0.9-0.1,1.7-0.5,2.3-1.2
		c1.3-1.3,1.6-3.2,0.9-4.8c17.2,5.1,32.9,12.1,43.6,31.1c0.4,1.8,1.5,4,3.3,6.6c0,0,0,0,0,0c0,0.1,0.1,0.1,0.1,0.2c0,0,0,0,0,0.1
		c0,0,0,0,0.1,0.1c0.3,0.3,0.8,0.4,1.2,0.3c0,0,0,0,0,0c0.1,0,0.1,0,0.2-0.1c0,0,0,0,0,0c0.1,0,0.1-0.1,0.2-0.1c0,0,0,0,0.1,0
		c0,0,0,0,0,0c0.2-0.1,0.3-0.2,0.4-0.4c0-0.1,0.1-0.1,0.1-0.2c0,0,0-0.1,0-0.1c0,0,0-0.1,0-0.2c0,0,0-0.1,0-0.1c0-0.1,0-0.1,0-0.2
		c0,0,0-0.1,0-0.1c0-0.1,0-0.2,0-0.3c0,0,0,0,0,0c0-0.1,0-0.2-0.1-0.2c0,0,0,0,0,0c-1-2.2-2-4.2-3.1-6.2c-0.1-0.5,0-0.9,0-1.2
		c0.3-1.2,1.8-1.9,3.5-2.6c0,0,0,0,0,0c0,0,0,0,0.1,0c0,0,0,0,0,0c0,0,0,0,0.1,0c0,0,0,0,0,0c0,0,0,0,0.1,0c0,0,0,0,0,0
		c0,0,0.1-0.1,0.1-0.1c0,0,0.1,0,0.1-0.1c0,0,0,0,0,0c0,0,0,0,0,0c0,0,0-0.1,0.1-0.1c0,0,0-0.1,0.1-0.1c0,0,0,0,0,0c0,0,0-0.1,0-0.1
		c0,0,0-0.1,0-0.1c0,0,0,0,0-0.1c0,0,0-0.1,0-0.1c0,0,0-0.1,0-0.1c0,0,0,0,0-0.1c0,0,0-0.1,0-0.1c0,0,0-0.1,0-0.1c0,0,0,0,0,0
		c0,0,0-0.1,0-0.1c0,0,0-0.1,0-0.1c0,0,0,0,0-0.1c0,0,0-0.1,0-0.1c0,0,0,0,0,0c0,0,0-0.1,0-0.1c0,0,0,0,0,0c0,0,0,0,0-0.1
		c0,0,0,0,0,0c-1.9-3.5-4-6.7-6.2-9.5c0.6-0.6,1.8-1.1,2.9-1.7c0,0,0,0,0,0c0,0,0,0,0,0c0,0,0,0,0.1,0c0,0,0,0,0,0c0,0,0.1,0,0.1,0
		c0,0,0,0,0,0c0,0,0,0,0,0c0,0,0.1-0.1,0.1-0.1c0,0,0.1-0.1,0.1-0.1c0,0,0,0,0,0c0,0,0,0,0,0c0,0,0.1-0.1,0.1-0.1
		c0,0,0.1-0.1,0.1-0.1c0,0,0,0,0,0c0,0,0-0.1,0-0.1c0,0,0-0.1,0.1-0.1c0,0,0-0.1,0-0.1c0,0,0-0.1,0-0.1c0,0,0,0,0,0c0,0,0-0.1,0-0.1
		c0,0,0-0.1,0-0.1c0,0,0,0,0,0c0,0,0-0.1,0-0.1c0,0,0-0.1,0-0.1c0,0,0,0,0,0c0,0,0,0,0,0c0,0,0,0,0-0.1c0,0,0-0.1,0-0.1c0,0,0,0,0,0
		c0,0,0,0,0,0c0,0,0,0,0,0c0,0,0-0.1-0.1-0.1c0,0,0-0.1-0.1-0.1c0,0,0,0,0,0c0,0,0,0,0,0c-1.7-2.6-3.5-4.9-5.4-7c0-0.2,0-0.3,0-0.4
		c0.1-0.9,1.6-1.5,2.9-2.1c0,0,0,0,0,0c0,0,0.1,0,0.1-0.1c0,0,0.1,0,0.1-0.1c0,0,0,0,0.1,0c0,0,0,0,0,0c0,0,0,0,0,0
		c0,0,0.1,0,0.1-0.1c0,0,0,0,0-0.1c0,0,0-0.1,0.1-0.1c0,0,0-0.1,0.1-0.1c0,0,0,0,0-0.1c0,0,0-0.1,0-0.1c0,0,0-0.1,0-0.1
		c0,0,0,0,0-0.1c0,0,0-0.1,0-0.1c0,0,0-0.1,0-0.1c0,0,0-0.1,0-0.1c0,0,0-0.1,0-0.1c0,0,0-0.1,0-0.1c0,0,0-0.1,0-0.1c0,0,0-0.1,0-0.1
		c0,0,0-0.1,0-0.1c0,0,0,0,0-0.1c0,0,0-0.1,0-0.1c0,0,0,0,0-0.1c-2.1-5.3-0.4-6.1,2.5-7.4l0,0c0,0,0.1,0,0.1,0c0,0,0.1,0,0.1,0
		c0,0,0,0,0,0c0,0,0.1-0.1,0.1-0.1c0,0,0,0,0.1-0.1c0,0,0,0,0,0c0,0,0,0,0,0c0,0,0.1-0.1,0.1-0.1c0,0,0,0,0.1-0.1c0,0,0,0,0,0
		c0,0,0,0,0,0c0,0,0-0.1,0.1-0.1c0,0,0-0.1,0.1-0.1c0,0,0,0,0,0c1.7-4,4.9-5.5,8.4-7.1c0,0,0,0,0,0c0,0,0,0,0.1,0c0,0,0.1,0,0.1-0.1
		c0,0,0,0,0.1,0c0,0,0,0,0.1-0.1c0,0,0.1-0.1,0.1-0.1c0,0,0,0,0.1-0.1c0,0,0,0,0,0c0,0,0,0,0-0.1c0,0,0,0,0,0c2.8-4,6.8-5.8,11-7.7
		c0,0,0,0,0,0c0,0,0,0,0.1,0c0,0,0.1,0,0.1-0.1c0,0,0.1,0,0.1-0.1c0,0,0,0,0.1,0c0,0,0,0,0.1-0.1c0,0,0,0,0.1-0.1c0,0,0,0,0.1-0.1
		c0,0,0,0,0,0c0,0,0,0,0-0.1c0,0,0-0.1,0-0.1c0,0,0-0.1,0-0.1c0,0,0-0.1,0-0.1c0,0,0-0.1,0-0.1c0,0,0,0,0,0c1.4-4.6,4.6-6.1,8.4-7.8
		c0,0,0,0,0,0c0,0,0.1,0,0.1-0.1c0,0,0.1,0,0.1-0.1c0,0,0,0,0,0c0,0,0.1,0,0.1-0.1c0,0,0.1-0.1,0.1-0.1c0,0,0,0,0,0
		c0,0,0-0.1,0.1-0.1c0,0,0.1-0.1,0.1-0.1c0,0,0,0,0,0c0,0,0,0,0,0c0,0,0,0,0,0c0,0,0,0,0,0c0,0,0-0.1,0.1-0.1c0,0,0,0,0,0
		c0,0,0-0.1,0-0.1c0,0,0-0.1,0-0.1c0,0,0,0,0-0.1c0,0,0-0.1,0-0.1c0,0,0-0.1,0-0.1c0,0,0,0,0-0.1c0,0,0-0.1,0-0.1c0,0,0-0.1,0-0.1
		c-0.8-4.4,1-5.2,3.7-6.5c0,0,0,0,0.1,0c0,0,0,0,0.1,0c0,0,0,0,0.1,0c0,0,0.1,0,0.1-0.1c0,0,0,0,0.1,0c0,0,0,0,0.1-0.1
		c0,0,0.1-0.1,0.1-0.1c0,0,0,0,0-0.1c0,0,0,0,0-0.1c0,0,0-0.1,0.1-0.1c0,0,0,0,0-0.1c0,0,0,0,0,0c0,0,0,0,0-0.1c0,0,0-0.1,0-0.1
		c0,0,0,0,0-0.1c0,0,0-0.1,0-0.1c0,0,0-0.1,0-0.1c0,0,0,0,0-0.1c0,0,0,0,0-0.1c0,0,0-0.1,0-0.1c0,0,0-0.1,0-0.1c0,0,0,0,0-0.1
		c0,0,0-0.1,0-0.1c0,0,0-0.1,0-0.1c0,0,0,0,0,0c-1.1-3-0.2-3.4,1.6-4.2l0,0c0,0,0.1,0,0.1-0.1c0,0,0.1,0,0.1-0.1
		c0,0,0.1-0.1,0.1-0.1c0,0,0.1-0.1,0.1-0.1c0,0,0.1-0.1,0.1-0.1c0,0,0.1-0.1,0.1-0.1c0,0,0.1-0.1,0.1-0.2c0,0,0-0.1,0-0.1
		c0,0,0,0,0,0c0-0.1,0-0.1,0-0.2 M843.7,587.4c-1.8,1.8-2.2,4.5-1,6.6c-3.1,0.1-6.3,0.3-9.4,0.7c0,0,0,0,0,0c0,0-0.1,0-0.1,0
		c0,0,0,0,0,0c-0.2,0-0.4,0-0.5,0.1c-6.8,1-13.1,3.5-17.6,10.3c-0.1,0.1-0.1,0.2-0.2,0.3c-1,1.6-1.9,3.3-2.7,5.4
		c-0.1,0.1-0.2,0.2-0.2,0.3c-2.1,4.6-4.2,9.3-5.8,14.1c-3.3,6.4-6.2,13.2-7.8,20.4c-5.4,12.3-7.2,26.5-0.7,44 M870.5,559.7
		c0.9-0.2,1.8-0.4,2.7-0.6c-0.1,0.1-0.2,0.2-0.3,0.3C872.1,559.5,871.3,559.6,870.5,559.7z M918.3,572.7
		c-13.9-11.6-27.6-14.6-40.8-13.8c0.5-0.4,1-0.8,1.5-1.2c15.7-3.1,31.2-3,48.3,8.6C924,567.9,920.9,569.7,918.3,572.7z M941.8,547.4
		c-7.6-3.4-14.7-5.2-21.5-5.8c6.9-0.8,14.3-0.2,22.6,2.7C942.2,545,941.7,546,941.8,547.4z M859.2,565.1c3.5-0.6,7.1-1.2,10.5-1.7
		c-0.3,0.5-0.6,1-0.9,1.4c-3.4,0.1-6.9,0.5-10.3,0.9C858.8,565.5,859,565.3,859.2,565.1z M856.4,569.2c3.6-0.3,7.1-0.6,10.6-0.7
		c-0.3,0.7-0.5,1.3-0.7,2c-3.5-0.2-7-0.1-10.5,0.1C856,570.1,856.2,569.7,856.4,569.2z M854.7,573.8c3.6,0,7.1,0.1,10.6,0.2
		c-0.2,0.8-0.3,1.5-0.5,2.3c-3.5-0.4-7-0.6-10.5-0.7C854.4,575,854.6,574.4,854.7,573.8z M853.2,586c0-0.7,0.1-1.4,0.1-2.1
		c3.5,0.6,7,1.3,10.4,2c-0.1,0.8-0.1,1.7-0.2,2.5C860.1,587.5,856.7,586.7,853.2,586z M853.6,580.8c0.1-0.7,0.1-1.4,0.2-2.1
		c3.5,0.3,7,0.7,10.5,1.1c-0.1,0.8-0.2,1.6-0.3,2.4C860.5,581.6,857.1,581.2,853.6,580.8z M844.5,607.2c-0.8,0-1.7,0.1-2.5,0.1
		c-0.7-3.4-1.3-6.9-1.9-10.4c0.7,0,1.4-0.1,2.1-0.1C842.9,600.3,843.7,603.8,844.5,607.2z M838.4,607.6c-0.8,0.1-1.6,0.2-2.4,0.2
		c-0.4-3.5-0.7-7-1-10.5c0.7-0.1,1.4-0.1,2.1-0.2C837.3,600.6,837.8,604.1,838.4,607.6z M815.7,613.8c-0.1,0.8-0.2,1.6-0.3,2.4
		c-0.1,0.1-0.2,0.2-0.3,0.3C815.2,615.6,815.5,614.7,815.7,613.8z M821.2,602.5c0.2-0.2,0.5-0.4,0.7-0.6c-0.5,3.4-0.9,6.8-1.1,10.3
		c-0.5,0.3-1,0.6-1.4,0.9C819.9,609.6,820.6,606.1,821.2,602.5z M825.4,599.9c0.5-0.2,1-0.4,1.4-0.6c-0.2,3.5-0.4,7-0.3,10.5
		c-0.7,0.2-1.3,0.5-2,0.7C824.7,607,825,603.4,825.4,599.9z M830,598.2c0.6-0.2,1.2-0.3,1.8-0.4c0,3.5,0.2,7,0.5,10.5
		c-0.8,0.1-1.5,0.3-2.3,0.5C829.9,605.3,830,601.8,830,598.2z M801.6,684.9c-0.9,0.1-1.6,0.5-2.2,1c-2.7-8.3-3.2-15.8-2.4-22.6
		c0.5,6.8,2.2,13.9,5.5,21.5C802.2,684.9,801.9,684.9,801.6,684.9z M809.5,680.9c-2.2,0.3-3.5,1.5-4.4,2.8
		c-5.9-13.8-6-25.7-3.2-36.9c0-0.1,0.1-0.2,0.1-0.3c-0.4,10.6,1.8,22,8.5,34.2C810.2,680.8,809.8,680.8,809.5,680.9z M813,679.4
		c-8.4-15.6-8.8-29.3-6-42.6c0.4-0.8,0.9-1.6,1.4-2.4c-0.5,12.1,2.3,24.8,11.4,38.3C816.2,674.2,814.4,676.8,813,679.4z
		 M821.7,670.6c-11.4-17.2-11.2-32.8-8-48.4c0.4-0.5,0.8-1,1.2-1.5c-0.9,13.2,1.8,27,13.3,41C825.1,664.3,823.2,667.4,821.7,670.6z
		 M829.9,659.4c-11.5-14.4-12.6-28.3-10.9-42.5c0.6-0.5,1.2-0.9,1.9-1.3c0,12.4,3.4,24.9,15,37C832.8,654.3,831.2,656.9,829.9,659.4
		z M842,647.4c-2.1,0.3-3.3,1.7-4.2,3.1c-11.4-12-13.6-24.2-13.4-37c0.7-0.3,1.5-0.6,2.3-0.9c0.8,11.9,4.7,23.8,15.9,34.7
		C842.4,647.4,842.2,647.4,842,647.4z M846.9,647.6c-12.5-11-15.9-23.1-16.7-35.9c0.8-0.2,1.6-0.4,2.5-0.5
		c1.6,12,5.8,23.8,16.2,34.2C848,645.9,847.4,646.7,846.9,647.6z M858.6,649.4c-2.3-2.4-4.2-3.8-5.9-4.4
		c-10.9-10.2-14.6-21.9-16.4-34.4c0.9-0.1,1.7-0.2,2.6-0.2c2.7,13.5,8.3,26.6,20.9,37.4C859.3,648.3,859,648.8,858.6,649.4z
		 M871.8,652.2c-4-4.3-6.9-6.1-9.3-5.9c-12-10.2-16.9-22.7-19.9-36.2c0.9,0,1.8-0.1,2.7-0.1c4.3,15.1,12,29.3,28.5,39.8
		C873,650.4,872.3,651.3,871.8,652.2z M905.8,618.3c-10.3-16.6-24.4-24.5-39.4-29c0-0.9,0.1-1.8,0.2-2.7
		c13.4,3.2,25.8,8.2,35.9,20.3c-0.3,2.4,1.5,5.3,5.8,9.3C907.3,616.8,906.4,617.4,905.8,618.3z M866.8,582.8
		c0.1-0.9,0.2-1.7,0.3-2.6c12.5,1.9,24.2,5.8,34.2,16.8c0.6,1.7,2,3.6,4.3,6c-0.6,0.3-1.2,0.7-1.7,1.1
		C893.3,591.5,880.3,585.7,866.8,582.8z M901.6,593.3c-10.2-10.5-22-14.9-34-16.6c0.2-0.8,0.3-1.6,0.5-2.4
		c12.8,1,24.9,4.5,35.7,17.2C903,591.8,902.2,592.4,901.6,593.3z M903.7,587c-10.7-11.3-22.5-15.3-34.5-16.3
		c0.3-0.8,0.6-1.5,0.9-2.2c12.7-0.1,25,2.3,36.8,13.8C905.4,583.2,903.9,584.5,903.7,587z M909,580.3
		c-11.9-11.7-24.4-15.3-36.8-15.4c0.4-0.6,0.9-1.3,1.3-1.9c14.2-1.5,28.1-0.2,42.3,11.5C913.3,575.7,910.8,577.3,909,580.3z
		 M929.3,564.4c-13.4-9.3-26.1-12.3-38.1-11.9c0.8-0.4,1.6-0.9,2.4-1.3c13.3-2.6,27-2.1,42.5,6.6C933.5,559.1,930.9,561,929.3,564.4
		z M937.6,555.3c-12.2-6.8-23.5-9.2-34.1-9c0.1,0,0.2-0.1,0.3-0.1c11.2-2.6,23.1-2.4,36.8,3.7C939,551,937.7,552.6,937.6,555.3z"/>
	<g>
		<path class="st0" d="M264.1,240.8l-5.3-1.6c-0.5-0.1-0.7-0.6-0.6-1.1l0.1-0.2c0.1-0.5,0.6-0.7,1.1-0.6l5.3,1.6
			c0.5,0.1,0.7,0.6,0.6,1.1l-0.1,0.2C265,240.7,264.6,240.9,264.1,240.8z"/>
		<path class="st0" d="M250.5,253l-1.1-5.4c-0.1-0.5,0.2-0.9,0.7-1l0.2,0c0.5-0.1,0.9,0.2,1,0.7l1.1,5.4c0.1,0.5-0.2,0.9-0.7,1
			l-0.2,0C251,253.8,250.6,253.5,250.5,253z"/>
	</g>
	<g>
		<path class="st0" d="M359.2,291.5l22.4,28c-2.2,1.8-3.6,4.5-3.6,7.6c0,5.4,4.4,9.8,9.8,9.8s9.8-4.4,9.8-9.8s-4.4-9.8-9.8-9.8
			c-1.2,0-2.3,0.2-3.4,0.6l-12.9-33.4"/>
		<path class="st0" d="M432.6,284.5l-13.2,33.8c-2.7-1-5.7-0.9-8.4,0.7c-4.7,2.7-6.3,8.7-3.6,13.4c2.7,4.7,8.7,6.3,13.4,3.6
			c4.7-2.7,6.3-8.7,3.6-13.4c-0.6-1.1-1.4-2-2.3-2.7l22.8-28.2"/>
		<path class="st0" d="M475.4,344.6l-36.1,5.5c-0.5-2.7-2.1-5.1-4.7-6.6c-4.7-2.7-10.7-1.1-13.4,3.6s-1.1,10.7,3.6,13.4
			c4.7,2.7,10.7,1.1,13.4-3.6c0.7-1.2,1.1-2.4,1.2-3.7l35.9,5.7"/>
		<path class="st0" d="M444.7,411.7L422,383.2c1.9-1.8,3.1-4.3,3.1-7.1c0-5.4-4.4-9.8-9.8-9.8c-5.4,0-9.8,4.4-9.8,9.8
			c0,5.4,4.4,9.8,9.8,9.8c1.5,0,2.9-0.3,4.1-0.9l12.9,33.7"/>
		<path class="st0" d="M371.3,418.6l13.1-33.5c2.5,0.7,5.2,0.5,7.7-0.9c4.7-2.7,6.3-8.7,3.6-13.4c-2.7-4.7-8.7-6.3-13.4-3.6
			c-4.7,2.7-6.3,8.7-3.6,13.4c0.7,1.3,1.7,2.3,2.8,3.1L359,411.4"/>
		<path class="st0" d="M328.6,358.6l35.3-5.4c0.6,2.6,2.2,5,4.6,6.4c4.7,2.7,10.7,1.1,13.4-3.5s1.1-10.7-3.5-13.4
			c-4.7-2.7-10.7-1.1-13.4,3.5c-0.7,1.2-1.1,2.4-1.2,3.7l-35.1-5.5"/>
		<polygon class="st0" points="404.7,347.9 401.6,336.6 399.8,347.2 388.4,344.1 396.7,351 388.4,359.4 398.5,355.7 401.6,367 
			403.4,356.4 414.8,359.4 406.5,352.6 414.8,344.2 		"/>
		<path class="st0" d="M297.3,354.3c-7.4,0-13.3-1.1-13.3-2.5s6-2.5,13.3-2.5s8.4,1.1,8.4,2.5C305.7,353.3,304.7,354.3,297.3,354.3z
			"/>
		<path class="st0" d="M347.2,262.7c-3.7-6.4-5.7-12.1-4.5-12.8c1.2-0.7,5.2,3.9,8.9,10.3c3.7,6.4,3.3,7.8,2,8.5
			S350.9,269.1,347.2,262.7z"/>
		<path class="st0" d="M451.5,260.2c3.7-6.4,7.6-11,8.9-10.3c1.2,0.7-0.8,6.4-4.5,12.8c-3.7,6.4-5.1,6.7-6.4,6
			C448.2,268,447.8,266.6,451.5,260.2z"/>
		<path class="st0" d="M506.4,349.6c6.1,0,11,0.9,11,2.1c0,1.1-4.9,2.1-11,2.1s-6.9-0.9-6.9-2.1S500.3,349.6,506.4,349.6z"/>
		<path class="st0" d="M456.1,440.8c3.7,6.4,5.7,12.1,4.5,12.8s-5.2-3.9-8.9-10.3c-3.7-6.4-3.3-7.8-2-8.5
			C450.9,434.1,452.4,434.4,456.1,440.8z"/>
		<path class="st0" d="M351.8,443.5c-3.7,6.4-7.6,11-8.8,10.3c-1.2-0.7,0.8-6.4,4.5-12.8c3.7-6.4,5.1-6.8,6.4-6
			C355.1,435.7,355.5,437.1,351.8,443.5z"/>
		<path class="st0" d="M272.6,353.3l55.1,15.3c-2,1.7-3.7,3.8-5,6.2c-3.7,6.5-3.9,14-1.3,20.4c-5.5,3-10.8,5.7-12.6,6.1
			c-2.6,0.5-5.2-0.2-7.2-1.3c1-2.5,0-5.5-2.4-6.9c-2.7-1.5-6.1-0.6-7.6,2.1c-1.5,2.7-0.6,6.1,2.1,7.6c2.1,1.2,4.8,0.8,6.5-0.7
			c2.5,1.3,5.7,2.3,9.1,1.6c2.1-0.4,7.7-3.2,13.2-6.3c0.2,0.4,0.4,0.8,0.7,1.2c-4.7,4.3-9.8,8.7-13.1,10.9c-1.6,1-4.9,3.1-7.7,4.9
			c-0.4-0.5-1-1-1.6-1.4c-2.7-1.5-6.1-0.6-7.7,2.1c-1.5,2.7-0.6,6.1,2.1,7.7c2.7,1.5,6.1,0.6,7.7-2.1c0.7-1.3,0.9-2.7,0.6-4.1
			c2.8-1.8,6.3-3.9,8-5c3.3-2.2,8.4-6.6,13.1-10.9c0.3,0.4,0.6,0.8,1,1.1c-2.1,3.4-4.1,6.9-5.6,9.9c-2.7-0.5-5.6,0.8-7,3.3
			c-1.8,3.2-0.7,7.4,2.5,9.2c3.2,1.8,7.4,0.7,9.2-2.5c1.8-3.2,0.7-7.2-2.4-9.1c1.3-2.6,3.2-5.8,5.1-9c1.3,1.1,2.7,2.2,4.2,3
			c5.9,3.3,12.6,3.8,18.5,2L334.6,468l44.5-43.8c0.5,2.5,1.4,5,2.8,7.3c3.8,6.4,10.2,10.4,17,11.4c-0.2,6.3-0.5,12.2-1.1,14
			c-0.8,2.5-2.8,4.3-4.7,5.6c-1.7-2.2-4.8-2.8-7.2-1.4c-2.7,1.6-3.5,5-2,7.6c1.6,2.7,5,3.5,7.6,2c2.1-1.2,3.1-3.7,2.6-6
			c2.4-1.5,4.9-3.8,6-7.1c0.7-2.1,1-8.3,1.2-14.6c0.4,0,0.9,0,1.3,0c1.3,6.2,2.6,12.9,2.9,16.8c0.1,1.9,0.3,5.8,0.3,9.1
			c-0.7,0.1-1.4,0.3-2,0.7c-2.7,1.6-3.6,5-2,7.7c1.6,2.7,5,3.6,7.7,2c2.7-1.6,3.6-5,2-7.7c-0.7-1.3-1.9-2.1-3.2-2.5
			c-0.1-3.3-0.2-7.5-0.4-9.4c-0.3-4-1.5-10.6-2.8-16.8c0.5-0.1,1-0.2,1.5-0.3c1.9,3.5,3.9,7,5.8,9.8c-1.8,2.1-2.1,5.2-0.7,7.7
			c1.9,3.2,6,4.3,9.2,2.4c3.2-1.9,4.3-6,2.4-9.2c-1.9-3.2-5.9-4.3-9.1-2.5c-1.6-2.5-3.4-5.6-5.2-8.9c1.6-0.5,3.2-1.2,4.7-2.1
			c5.9-3.4,9.7-9,11-15.2l43.8,43.2l-15.6-60.4c2.4,0.8,4.9,1.2,7.6,1.2c7.5,0,14.1-3.6,18.4-9c5.4,3.3,10.3,6.6,11.6,7.9
			c1.8,2,2.4,4.6,2.5,6.9c-2.7,0.4-4.8,2.7-4.8,5.5c0,3.1,2.5,5.6,5.6,5.5s5.6-2.5,5.5-5.6c0-2.5-1.6-4.6-3.9-5.3
			c-0.1-2.8-0.8-6.1-3.1-8.7c-1.4-1.6-6.6-5-12-8.3c0.2-0.4,0.5-0.8,0.7-1.2c6.1,2,12.4,4.2,15.9,5.9c1.7,0.8,5.2,2.7,8,4.3
			c-0.3,0.6-0.4,1.3-0.4,2.1c0,3.1,2.5,5.6,5.6,5.6c3.1,0,5.6-2.5,5.6-5.6c0-3.1-2.5-5.6-5.6-5.6c-1.5,0-2.8,0.6-3.8,1.5
			c-2.9-1.6-6.6-3.6-8.4-4.4c-3.6-1.8-9.9-4-16-6c0.2-0.5,0.4-0.9,0.5-1.4c4,0.1,8.1,0.1,11.4-0.1c0.9,2.6,3.4,4.5,6.4,4.4
			c3.7,0,6.7-3.1,6.7-6.8c0-3-3.3-6.7-6.8-6.7c-3.7,0-6.6,3-6.7,6.6c-3,0.2-6.6,0.1-10.3,0c0.4-1.7,0.6-3.4,0.6-5.2
			c0-6.8-3-12.9-7.7-17.2l38.4-11.7l0,0.5c2,3.4,6.4,7.5,12,7.4c5.3,0,9.8-4,12-7.5c2.1,1.4,4.9,2.5,7.4,2.5
			c3.1,0,17.2-1.2,27.8-3.1h71.2c1.4,0,2.6-0.4,3.6-1.1c1.5,2.3,4.6,4.7,8.1,4.7c4.3,0,8.1-3.2,10.8-5.5h13.9
			c2.6,0.8,4.7,2.1,7.2,2.1c2.5,0,26.1-1.3,35.5-3"/>
		<path class="st0" d="M724,350.5c-9.7-1.7-32.8-2.9-35.2-2.9c-2.5,0-4.6,1.3-7.2,2.1h-13.9c-2.7-2.3-6.5-5.5-10.8-5.5
			c-3.5,0-6.6,2.3-8.1,4.7c-1-0.7-2.2-1.1-3.6-1.1H574c-10.7-1.8-24.7-3.1-27.8-3.1c-2.3,0-5.1,1.2-7.2,2.7
			c-2.2-3.6-6.8-7.7-12.2-7.7c-5.3,0-9.8,3.6-12,7.4l0,0.1l-39-12c1.9-1.6,3.5-3.6,4.8-5.9c3.7-6.5,4-14,1.4-20.4
			c5.6-3,10.9-5.7,12.7-6c2.6-0.5,5.2,0.3,7.2,1.3c-1,2.5-0.1,5.5,2.4,6.9c2.7,1.5,6.1,0.6,7.6-2.1c1.5-2.7,0.6-6.1-2.1-7.6
			c-2.1-1.2-4.8-0.9-6.5,0.7c-2.5-1.3-5.7-2.4-9.1-1.7c-2.1,0.4-7.7,3.2-13.2,6.2c-0.2-0.4-0.4-0.8-0.7-1.2
			c4.7-4.3,9.9-8.6,13.1-10.8c1.6-1,4.9-3.1,7.7-4.8c0.4,0.5,1,1,1.6,1.4c2.7,1.5,6.1,0.6,7.7-2.1c1.5-2.7,0.6-6.1-2.1-7.7
			c-2.7-1.5-6.1-0.6-7.7,2.1c-0.7,1.3-0.9,2.7-0.6,4c-2.9,1.7-6.4,3.9-8,5c-3.3,2.2-8.4,6.6-13.2,10.8c-0.3-0.4-0.6-0.8-0.9-1.1
			c2.1-3.4,4.2-6.9,5.7-9.9c2.7,0.5,5.6-0.7,7-3.3c1.9-3.2,0.7-7.4-2.5-9.2s-7.4-0.7-9.2,2.5c-1.8,3.2-0.8,7.2,2.4,9.1
			c-1.4,2.6-3.2,5.8-5.1,9c-1.3-1.1-2.6-2.2-4.2-3.1c-5.9-3.4-12.8-3.9-18.8-2l15.6-59.7l-44.4,43.5c-0.5-2.4-1.4-4.8-2.7-7
			c-3.7-6.5-10.1-10.5-17-11.4c0.2-6.3,0.5-12.2,1.1-14c0.8-2.5,2.8-4.3,4.7-5.6c1.7,2.2,4.7,2.8,7.2,1.4c2.7-1.5,3.6-4.9,2-7.6
			c-1.5-2.7-4.9-3.6-7.6-2c-2.1,1.2-3.1,3.7-2.7,6c-2.4,1.5-4.9,3.8-6,7c-0.7,2.1-1.1,8.3-1.3,14.6c-0.4,0-0.9,0-1.3,0
			c-1.3-6.2-2.5-12.9-2.8-16.8c-0.1-1.9-0.2-5.8-0.3-9.1c0.7-0.1,1.4-0.3,2-0.7c2.7-1.6,3.6-5,2-7.7c-1.6-2.7-5-3.6-7.7-2
			c-2.7,1.6-3.6,5-2,7.7c0.7,1.3,1.9,2.1,3.2,2.5c0.1,3.3,0.2,7.5,0.3,9.4c0.3,4,1.5,10.6,2.8,16.8c-0.5,0.1-1,0.1-1.5,0.2
			c-1.9-3.5-3.9-7.1-5.8-9.9c1.8-2.1,2.2-5.2,0.7-7.7c-1.9-3.2-6-4.3-9.2-2.5c-3.2,1.9-4.3,6-2.5,9.2c1.8,3.2,5.9,4.3,9.1,2.5
			c1.6,2.5,3.4,5.6,5.2,8.9c-1.6,0.5-3.2,1.2-4.8,2.1c-6,3.5-9.8,9.2-11.2,15.4l-44-43.4l15.5,60c-2.3-0.8-4.8-1.2-7.3-1.2
			c-7.5,0-14.1,3.5-18.4,9c-5.4-3.3-10.3-6.6-11.5-8c-1.7-2-2.3-4.6-2.5-6.9c2.7-0.4,4.8-2.7,4.8-5.5c0-3.1-2.5-5.6-5.6-5.6
			c-3.1,0-5.6,2.5-5.6,5.6c0,2.5,1.6,4.6,3.8,5.3c0.1,2.8,0.8,6.1,3.1,8.7c1.4,1.6,6.6,5.1,12,8.4c-0.2,0.4-0.5,0.8-0.7,1.2
			c-6.1-2-12.4-4.3-15.9-6c-1.7-0.8-5.1-2.7-8-4.3c0.3-0.6,0.4-1.3,0.4-2.1c0-3.1-2.5-5.6-5.6-5.6s-5.6,2.5-5.6,5.6
			c0,3.1,2.5,5.6,5.6,5.6c1.5,0,2.8-0.6,3.8-1.5c2.9,1.6,6.6,3.6,8.3,4.5c3.6,1.8,9.9,4,15.9,6c-0.2,0.5-0.4,0.9-0.5,1.4
			c-4-0.1-8.1-0.2-11.4,0c-0.9-2.6-3.4-4.5-6.3-4.5c-3.7,0-6.7,3-6.7,6.7c0,3.7,3,6.7,6.7,6.7c3.7,0,6.7-2.9,6.7-6.6
			c3-0.1,6.6-0.1,10.3,0c-0.4,1.7-0.6,3.4-0.6,5.2c0,6.9,3,13.2,7.8,17.5l-54.5,15"/>
		<ellipse class="st0" cx="549.9" cy="352" rx="7.3" ry="0.8"/>
		<path class="st0" d="M398.7,271c0,0.1,0,0.2,0,0.2c-1.1,0.3-2.3,0.7-3.3,1.3c-6.2,3.6-8.3,11.4-4.7,17.6c1,1.8,2.4,3.2,4,4.3h0
			l7,26.9l7.2-26.8l0,0c5.8-3.7,7.7-11.3,4.2-17.3c-1.9-3.2-4.9-5.3-8.2-6.1c0-0.1,0-0.1,0-0.2c0-1.7-1.4-3-3-3
			S398.7,269.3,398.7,271z"/>
		<path class="st0" d="M449.5,311.5c-1,1.8-1.6,3.7-1.7,5.6l0,0L428,336.6l26.8-7.1l0,0c6.1,3.1,13.6,1,17.1-5c2-3.4,2.2-7.4,1-10.8
			c1.3-0.9,1.7-2.6,0.9-4c-0.8-1.5-2.7-1.9-4.2-1.1c0,0-0.1,0.1-0.1,0.1c-0.7-0.7-1.5-1.2-2.3-1.7
			C461,303.2,453.1,305.3,449.5,311.5z"/>
		<path class="st0" d="M454.8,374.5l-26.8-7.4l19.6,19.6l0,0c0.3,6.8,6,12.3,12.9,12.3c4,0,7.7-1.9,10-4.8c1.3,0.3,2.7-0.2,3.4-1.4
			c0.8-1.3,0.4-3-0.8-3.9c0.2-0.9,0.3-1.8,0.3-2.8c0-7.1-5.8-12.9-12.9-12.9C458.4,373.2,456.5,373.6,454.8,374.5L454.8,374.5z"/>
		<path class="st0" d="M401.6,382.3l-7.2,26.8l0,0c-5.8,3.7-7.7,11.3-4.2,17.3c2,3.4,5.3,5.6,8.9,6.2c0.4,1.2,1.5,2,2.9,2
			c1.4,0,2.6-1,2.9-2.3c1-0.3,2-0.7,2.9-1.2c6.2-3.6,8.3-11.4,4.7-17.6c-1-1.8-2.4-3.2-4-4.3h0L401.6,382.3z"/>
		<path class="st0" d="M375.2,367.1l-26.8,7.1l0,0c-6.1-3.1-13.6-1-17.1,5c-1.9,3.3-2.2,7-1.1,10.4c-1,1-1.3,2.5-0.5,3.7
			c0.7,1.3,2.3,1.8,3.6,1.3c0.8,0.8,1.7,1.5,2.8,2.1c6.2,3.6,14.1,1.4,17.6-4.7c1-1.8,1.6-3.7,1.7-5.6l0,0L375.2,367.1z"/>
		<path class="st0" d="M342.7,304.7c-3.8,0-7.2,1.7-9.6,4.3c-1.4-0.7-3.2-0.2-4,1.2c-0.8,1.5-0.3,3.3,1.1,4.1
			c-0.3,1-0.4,2.1-0.4,3.3c0,7.1,5.8,12.9,12.9,12.9c2,0,4-0.5,5.7-1.3l0,0l26.8,7.4l-19.6-19.6l0,0
			C355.3,310.1,349.6,304.7,342.7,304.7z"/>
	</g>
	<g>
		<g>
			<g>
				<path class="st0" d="M185.4,634c0,0.4,0.3,0.6,0.6,0.6c0.4,0,0.6-0.3,0.6-0.6c0-0.4-0.3-0.6-0.6-0.6
					C185.7,633.4,185.4,633.7,185.4,634z"/>
			</g>
			<path class="st1" d="M188.6,622.4c0.6,0,1.1-0.5,1.1-1.1c0-0.6-0.5-1.1-1.1-1.1c-0.6,0-1.1,0.5-1.1,1.1c-2.4,1.2-7.9,4.8-26.2,11
				C174.3,629.3,186.1,625,188.6,622.4z"/>
			<path class="st1" d="M177.9,629c4.7-0.3,8.7-1.1,10-1.9c0.1,0,0.2,0.1,0.3,0.1c0.5,0,0.9-0.4,0.9-0.9c0-0.5-0.4-0.9-0.9-0.9
				c-0.4,0-0.7,0.2-0.8,0.5C186,625.7,183.2,627.6,177.9,629z"/>
			<path class="st1" d="M189.7,631.2c0.5,0,0.9-0.4,0.9-0.9c0-0.5-0.4-0.9-0.9-0.9c-0.1,0-0.2,0-0.3,0.1c-0.5-0.2-2.1,0.2-4.9,0.3
				c3.3,0.2,4.1,1,4.5,1.1C189.1,631.1,189.4,631.2,189.7,631.2z"/>
			<path class="st1" d="M189.5,634.4c0.5,0,0.9-0.4,0.9-0.9c0-0.5-0.4-0.9-0.9-0.9c-0.1,0-0.2,0-0.2,0c-0.3-0.2-1.3-0.2-3.2-1
				c2,1.1,2.4,1.8,2.5,2C188.6,634.1,189,634.4,189.5,634.4z"/>
			<path class="st0" d="M182,636.1c0,0,0,3.9-6,2.9c-2.5-0.4-9.8-2.9-9.8-2.9s7.3-2.5,9.8-2.9C182,632.2,182,636.1,182,636.1
				L182,636.1z"/>
			<g>
				<path class="st0" d="M185.4,638.2c0-0.4,0.3-0.6,0.6-0.6c0.4,0,0.6,0.3,0.6,0.6c0,0.4-0.3,0.6-0.6,0.6
					C185.7,638.8,185.4,638.5,185.4,638.2z"/>
				<path class="st0" d="M185.4,638.2c-1.7,3.1-1.9,3.2-3.4,3.5c-4.6,0.8-15.3-1.8-21.2-4.4c-0.8,0.4-2,0.7-3.3,0.7
					c-2.4,0-5.4-0.8-5.4-1.9v0.2c0-1,3-1.9,5.4-1.9c1.3,0,2.5,0.3,3.3,0.7c5.9-2.6,16.6-5.2,21.2-4.4c1.4,0.2,1.7,0.3,3.4,3.5"/>
			</g>
			<path class="st1" d="M188.6,649.8c0.6,0,1.1,0.5,1.1,1.1c0,0.6-0.5,1.1-1.1,1.1c-0.6,0-1.1-0.5-1.1-1.1c-2.4-1.2-7.9-4.8-26.2-11
				C174.3,642.9,186.1,647.2,188.6,649.8z"/>
			<path class="st1" d="M177.9,643.2c4.7,0.3,8.7,1.1,10,1.9c0.1,0,0.2-0.1,0.3-0.1c0.5,0,0.9,0.4,0.9,0.9c0,0.5-0.4,0.9-0.9,0.9
				c-0.4,0-0.7-0.2-0.8-0.5C186,646.5,183.2,644.6,177.9,643.2z"/>
			<path class="st1" d="M189.7,641c0.5,0,0.9,0.4,0.9,0.9c0,0.5-0.4,0.9-0.9,0.9c-0.1,0-0.2,0-0.3-0.1c-0.5,0.2-2.1-0.2-4.9-0.3
				c3.3-0.2,4.1-1,4.5-1.1C189.1,641.1,189.4,641,189.7,641z"/>
			<path class="st1" d="M189.5,637.8c0.5,0,0.9,0.4,0.9,0.9c0,0.5-0.4,0.9-0.9,0.9c-0.1,0-0.2,0-0.2,0c-0.3,0.2-1.3,0.2-3.2,1
				c2-1.1,2.4-1.8,2.5-2C188.6,638.1,189,637.8,189.5,637.8z"/>
		</g>
		<g>
			<path class="st0" d="M44.8,637.8l90.5-0.1c29.5,3.1,48.2,14.3,50.4,14.3c0.1,0,0.3,0,0.5,0c0.2,0,0.4,0,0.4,0.2
				c0.4,0.8,1.3,1.2,2.4,1.1c0.9-0.1,1.7-0.8,1.9-1.8c0.1-0.7,0-1.3-0.3-1.8c-0.5-0.8,2.2-8.2,2.5-11.9c1,0.4,2.8,1.5,5.1,1.5
				c3.1,0,5.7-1.7,5.7-3.1v0v-0.1v0c0-1.4-2.6-3.1-5.7-3.1c-2.3,0-4.1,1.1-5.1,1.5c-0.2-3.7-3-11.1-2.5-11.9
				c0.3-0.5,0.5-1.1,0.3-1.8c-0.2-0.9-1-1.6-1.9-1.8c-1-0.1-1.9,0.3-2.4,1.1c-0.1,0.2-0.3,0.2-0.4,0.2c-0.2,0-0.3,0-0.5,0
				c-2.2,0-21,11.2-50.4,14.4H44.8"/>
		</g>
	</g>
	<g>
		<g>
			<g>
				<path class="st0" d="M43.1,669.9c0-0.4-0.3-0.6-0.6-0.6c-0.4,0-0.6,0.3-0.6,0.6c0,0.4,0.3,0.6,0.6,0.6
					C42.8,670.5,43.1,670.3,43.1,669.9z"/>
			</g>
			<path class="st1" d="M39.8,681.5c-0.6,0-1.1,0.5-1.1,1.1c0,0.6,0.5,1.1,1.1,1.1s1.1-0.5,1.1-1.1c2.4-1.2,7.9-4.8,26.2-11
				C54.1,674.6,42.4,679,39.8,681.5z"/>
			<path class="st1" d="M50.5,675c-4.7,0.3-8.7,1.1-10,1.9c-0.1,0-0.2-0.1-0.3-0.1c-0.5,0-0.9,0.4-0.9,0.9c0,0.5,0.4,0.9,0.9,0.9
				c0.4,0,0.7-0.2,0.8-0.5C42.4,678.2,45.2,676.3,50.5,675z"/>
			<path class="st1" d="M38.7,672.7c-0.5,0-0.9,0.4-0.9,0.9c0,0.5,0.4,0.9,0.9,0.9c0.1,0,0.2,0,0.3-0.1c0.5,0.2,2.1-0.2,4.9-0.3
				c-3.3-0.2-4.1-1-4.5-1.1C39.3,672.9,39,672.7,38.7,672.7z"/>
			<path class="st1" d="M38.9,669.5c-0.5,0-0.9,0.4-0.9,0.9c0,0.5,0.4,0.9,0.9,0.9c0.1,0,0.2,0,0.2,0c0.3,0.2,1.3,0.2,3.2,1
				c-2-1.1-2.4-1.8-2.5-2C39.8,669.9,39.4,669.5,38.9,669.5z"/>
			<path class="st0" d="M46.4,667.8c0,0,0-3.9,6-2.9c2.5,0.4,9.8,2.9,9.8,2.9s-7.3,2.5-9.8,2.9C46.4,671.8,46.4,667.9,46.4,667.8
				L46.4,667.8z"/>
			<g>
				<path class="st0" d="M43.1,665.8c0,0.4-0.3,0.6-0.6,0.6s-0.6-0.3-0.6-0.6c0-0.4,0.3-0.6,0.6-0.6
					C42.8,665.2,43.1,665.4,43.1,665.8z"/>
				<path class="st0" d="M43.1,665.8c1.7-3.1,1.9-3.2,3.4-3.5c4.6-0.8,15.3,1.8,21.2,4.4c0.8-0.4,2-0.7,3.3-0.7
					c2.4,0,5.4,0.8,5.4,1.9v-0.2c0,1-3,1.9-5.4,1.9c-1.3,0-2.5-0.3-3.3-0.7c-5.9,2.6-16.6,5.2-21.2,4.4c-1.4-0.2-1.7-0.3-3.4-3.5"/>
			</g>
			<path class="st1" d="M39.8,654.2c-0.6,0-1.1-0.5-1.1-1.1c0-0.6,0.5-1.1,1.1-1.1s1.1,0.5,1.1,1.1c2.4,1.2,7.9,4.8,26.2,11
				C54.1,661.1,42.4,656.7,39.8,654.2z"/>
			<path class="st1" d="M50.5,660.7c-4.7-0.3-8.7-1.1-10-1.9c-0.1,0-0.2,0.1-0.3,0.1c-0.5,0-0.9-0.4-0.9-0.9c0-0.5,0.4-0.9,0.9-0.9
				c0.4,0,0.7,0.2,0.8,0.5C42.4,657.5,45.2,659.4,50.5,660.7z"/>
			<path class="st1" d="M38.7,663c-0.5,0-0.9-0.4-0.9-0.9c0-0.5,0.4-0.9,0.9-0.9c0.1,0,0.2,0,0.3,0.1c0.5-0.2,2.1,0.2,4.9,0.3
				c-3.3,0.2-4.1,1-4.5,1.1C39.3,662.8,39,663,38.7,663z"/>
			<path class="st1" d="M38.9,666.2c-0.5,0-0.9-0.4-0.9-0.9c0-0.5,0.4-0.9,0.9-0.9c0.1,0,0.2,0,0.2,0c0.3-0.2,1.3-0.2,3.2-1
				c-2,1.1-2.4,1.8-2.5,2C39.8,665.8,39.4,666.2,38.9,666.2z"/>
		</g>
		<g>
			<path class="st0" d="M183.7,666.2l-90.5,0.1C63.6,663.1,44.9,652,42.7,652c-0.1,0-0.3,0-0.5,0c-0.2,0-0.4,0-0.4-0.2
				c-0.4-0.8-1.3-1.2-2.4-1.1c-0.9,0.1-1.7,0.8-1.9,1.8c-0.1,0.7,0,1.3,0.3,1.8c0.5,0.8-2.2,8.2-2.5,11.9c-1-0.4-2.8-1.5-5.1-1.5
				c-3.1,0-5.7,1.7-5.7,3.1v0v0.1v0c0,1.4,2.6,3.1,5.7,3.1c2.3,0,4.1-1.1,5.1-1.5c0.2,3.7,3,11.1,2.5,11.9c-0.3,0.5-0.5,1.1-0.3,1.8
				c0.2,0.9,1,1.6,1.9,1.8c1,0.1,1.9-0.3,2.4-1.1c0.1-0.2,0.3-0.2,0.4-0.2c0.2,0,0.3,0,0.5,0c2.2,0,21-11.2,50.4-14.4h90.5"/>
		</g>
	</g>
	<line class="st0" x1="161.5" y1="732.4" x2="171.7" y2="732.4"/>
	<line class="st0" x1="203.8" y1="732.4" x2="214" y2="732.4"/>
	<line class="st0" x1="246.1" y1="732.4" x2="256.3" y2="732.4"/>
	<line class="st0" x1="288.4" y1="732.4" x2="298.6" y2="732.4"/>
	<line class="st0" x1="330.7" y1="732.4" x2="340.9" y2="732.4"/>
	<line class="st0" x1="373" y1="732.4" x2="383.2" y2="732.4"/>
	<line class="st0" x1="415.3" y1="732.4" x2="425.5" y2="732.4"/>
	<line class="st0" x1="457.6" y1="732.4" x2="467.8" y2="732.4"/>
	<line class="st0" x1="499.9" y1="732.4" x2="510.1" y2="732.4"/>
	<line class="st0" x1="542.2" y1="732.4" x2="552.4" y2="732.4"/>
	<line class="st0" x1="584.5" y1="732.4" x2="594.7" y2="732.4"/>
	<line class="st0" x1="626.8" y1="732.4" x2="637" y2="732.4"/>
	<line class="st0" x1="669.1" y1="732.4" x2="679.3" y2="732.4"/>
	<line class="st0" x1="711.4" y1="732.4" x2="721.6" y2="732.4"/>
	<line class="st0" x1="753.7" y1="732.4" x2="763.9" y2="732.4"/>
	<line class="st0" x1="796" y1="732.4" x2="806.2" y2="732.4"/>
	<line class="st0" x1="838.3" y1="732.4" x2="848.5" y2="732.4"/>
	<line class="st0" x1="880.6" y1="732.4" x2="890.8" y2="732.4"/>
	<path class="st0" d="M920.5,730.2h-26.9c-3.5-1.7-8.1-3.7-9.9-3.7c-2.5,0-4.6,1.5-5.4,3.7h-26.9c-3.5-1.7-8.1-3.7-9.9-3.7
		c-2.5,0-4.6,1.5-5.4,3.7H809c-3.5-1.7-8.1-3.7-9.9-3.7c-2.5,0-4.6,1.5-5.4,3.7h-26.9c-3.5-1.7-8.1-3.7-9.9-3.7
		c-2.5,0-4.6,1.5-5.4,3.7h-26.9c-3.5-1.7-8.1-3.7-9.9-3.7c-2.5,0-4.6,1.5-5.4,3.7h-26.9c-3.5-1.7-8.1-3.7-9.9-3.7
		c-2.5,0-4.6,1.5-5.4,3.7h-26.9c-3.5-1.7-8.1-3.7-9.9-3.7c-2.5,0-4.6,1.5-5.4,3.7h-26.9c-3.5-1.7-8.1-3.7-9.9-3.7
		c-2.5,0-4.6,1.5-5.4,3.7h-26.9c-3.5-1.7-8.1-3.7-9.9-3.7c-2.5,0-4.6,1.5-5.4,3.7h-26.9c-3.5-1.7-8.1-3.7-9.9-3.7
		c-2.5,0-4.6,1.5-5.4,3.7h-26.9c-3.5-1.7-8.1-3.7-9.9-3.7c-2.5,0-4.6,1.5-5.4,3.7h-26.9c-3.5-1.7-8.1-3.7-9.9-3.7
		c-2.5,0-4.6,1.5-5.4,3.7H386c-3.5-1.7-8.1-3.7-9.9-3.7c-2.5,0-4.6,1.5-5.4,3.7h-26.9c-3.5-1.7-8.1-3.7-9.9-3.7
		c-2.5,0-4.6,1.5-5.4,3.7h-26.9c-3.5-1.7-8.1-3.7-9.9-3.7c-2.5,0-4.6,1.5-5.4,3.7h-26.9c-3.5-1.7-8.1-3.7-9.9-3.7
		c-2.5,0-4.6,1.5-5.4,3.7h-26.9c-3.5-1.7-8.1-3.7-9.9-3.7c-2.5,0-4.6,1.5-5.4,3.7h-26.9c-3.5-1.7-8.1-3.7-9.9-3.7
		c-2.5,0-4.6,1.5-5.4,3.7h-24.3"/>
	<path class="st0" d="M134.8,734.6h24.3c0.9,2.2,3,3.7,5.4,3.7c1.9,0,6.5-2,9.9-3.7h26.9c0.9,2.2,3,3.7,5.4,3.7c1.9,0,6.5-2,9.9-3.7
		h26.9c0.9,2.2,3,3.7,5.4,3.7c1.9,0,6.5-2,9.9-3.7H286c0.9,2.2,3,3.7,5.4,3.7c1.9,0,6.5-2,9.9-3.7h26.9c0.9,2.2,3,3.7,5.4,3.7
		c1.9,0,6.5-2,9.9-3.7h26.9c0.9,2.2,3,3.7,5.4,3.7c1.9,0,6.5-2,9.9-3.7h26.9c0.9,2.2,3,3.7,5.4,3.7c1.9,0,6.5-2,9.9-3.7h26.9
		c0.9,2.2,3,3.7,5.4,3.7c1.9,0,6.5-2,9.9-3.7h26.9c0.9,2.2,3,3.7,5.4,3.7c1.9,0,6.5-2,9.9-3.7h26.9c0.9,2.2,3,3.7,5.4,3.7
		c1.9,0,6.5-2,9.9-3.7h26.9c0.9,2.2,3,3.7,5.4,3.7c1.9,0,6.5-2,9.9-3.7h26.9c0.9,2.2,3,3.7,5.4,3.7c1.9,0,6.5-2,9.9-3.7h26.9
		c0.9,2.2,3,3.7,5.4,3.7c1.9,0,6.5-2,9.9-3.7H709c0.9,2.2,3,3.7,5.4,3.7c1.9,0,6.5-2,9.9-3.7h26.9c0.9,2.2,3,3.7,5.4,3.7
		c1.9,0,6.5-2,9.9-3.7h26.9c0.9,2.2,3,3.7,5.4,3.7c1.9,0,6.5-2,9.9-3.7h26.9c0.9,2.2,3,3.7,5.4,3.7c1.9,0,6.5-2,9.9-3.7h26.9
		c0.9,2.2,3,3.7,5.4,3.7c1.9,0,6.5-2,9.9-3.7h26.9c0.9,2.2,3,3.7,5.4,3.7c1.9,0,6.5-2,10-3.7c0.7,0,1.3-0.3,1.7-0.8
		c1.6-0.8,2.7-1.4,2.7-1.4s-1.1-0.6-2.7-1.4c-0.4-0.5-1-0.8-1.7-0.8c-3.5-1.7-8.1-3.7-10-3.7"/>
	<line class="st0" x1="922.9" y1="732.4" x2="933.1" y2="732.4"/>
	<g>
		<path class="st2" d="M423.4,545.4c-0.1-1-0.1-2.1-0.1-3h0c-0.2,0.8-0.5,1.7-0.9,2.6l-1.2,3.3h-0.7l-1.1-3.3
			c-0.3-1-0.6-1.8-0.8-2.7h0c0,0.9-0.1,2-0.1,3l-0.2,2.9h-0.8l0.5-6.8h1.1l1.2,3.3c0.3,0.8,0.5,1.6,0.7,2.3h0
			c0.2-0.7,0.4-1.4,0.7-2.3l1.2-3.3h1.1l0.4,6.8h-0.9L423.4,545.4z"/>
		<path class="st2" d="M430.3,545.9c0,1.8-1.3,2.6-2.4,2.6c-1.3,0-2.4-1-2.4-2.5c0-1.6,1.1-2.6,2.4-2.6
			C429.3,543.4,430.3,544.4,430.3,545.9z M426.4,545.9c0,1.1,0.6,1.9,1.5,1.9c0.9,0,1.5-0.8,1.5-1.9c0-0.8-0.4-1.9-1.5-1.9
			C426.8,544,426.4,545,426.4,545.9z"/>
		<path class="st2" d="M431.4,541.2h0.9v7.2h-0.9V541.2z"/>
		<path class="st2" d="M433.8,541.2h0.9v7.2h-0.9V541.2z"/>
		<path class="st2" d="M436.5,543.5l1.1,2.9c0.1,0.3,0.2,0.7,0.3,1h0c0.1-0.3,0.2-0.7,0.3-1l1-2.9h0.9l-1.3,3.5
			c-0.6,1.7-1.1,2.6-1.7,3.1c-0.4,0.4-0.9,0.5-1.1,0.6l-0.2-0.8c0.2-0.1,0.5-0.2,0.8-0.4c0.2-0.2,0.5-0.5,0.8-1
			c0-0.1,0.1-0.2,0.1-0.2c0-0.1,0-0.1-0.1-0.2l-1.8-4.5H436.5z"/>
		<path class="st2" d="M445.8,548.2c-0.3,0.2-1,0.3-1.8,0.3c-1.9,0-3.4-1.2-3.4-3.5c0-2.1,1.5-3.6,3.6-3.6c0.9,0,1.4,0.2,1.6,0.3
			l-0.2,0.7c-0.3-0.2-0.8-0.3-1.4-0.3c-1.6,0-2.7,1-2.7,2.8c0,1.7,1,2.8,2.6,2.8c0.5,0,1.1-0.1,1.4-0.3L445.8,548.2z"/>
		<path class="st2" d="M452.7,545.4c-0.1-1-0.1-2.1-0.1-3h0c-0.2,0.8-0.5,1.7-0.9,2.6l-1.2,3.3h-0.7l-1.1-3.3
			c-0.3-1-0.6-1.8-0.8-2.7h0c0,0.9-0.1,2-0.1,3l-0.2,2.9h-0.8l0.5-6.8h1.1l1.2,3.3c0.3,0.8,0.5,1.6,0.7,2.3h0
			c0.2-0.7,0.4-1.4,0.7-2.3l1.2-3.3h1.1l0.4,6.8h-0.9L452.7,545.4z"/>
		<path class="st2" d="M459.6,545.9c0,1.8-1.3,2.6-2.4,2.6c-1.3,0-2.4-1-2.4-2.5c0-1.6,1.1-2.6,2.4-2.6
			C458.6,543.4,459.6,544.4,459.6,545.9z M455.7,545.9c0,1.1,0.6,1.9,1.5,1.9c0.9,0,1.5-0.8,1.5-1.9c0-0.8-0.4-1.9-1.5-1.9
			C456.1,544,455.7,545,455.7,545.9z"/>
		<path class="st2" d="M460.7,545c0-0.6,0-1.1,0-1.5h0.8l0,1h0c0.2-0.7,0.8-1.1,1.4-1.1c0.1,0,0.2,0,0.3,0v0.8c-0.1,0-0.2,0-0.3,0
			c-0.6,0-1.1,0.5-1.2,1.1c0,0.1,0,0.3,0,0.4v2.6h-0.9V545z"/>
		<path class="st2" d="M465,542.1c0,0.3-0.2,0.5-0.6,0.5c-0.3,0-0.5-0.2-0.5-0.5c0-0.3,0.2-0.6,0.6-0.6
			C464.8,541.5,465,541.8,465,542.1z M464.1,548.4v-4.9h0.9v4.9H464.1z"/>
		<path class="st2" d="M466.4,544.8c0-0.5,0-0.9,0-1.3h0.8l0.1,0.8h0c0.2-0.5,0.8-0.9,1.6-0.9c0.7,0,1.7,0.4,1.7,2.1v2.9h-0.9v-2.8
			c0-0.8-0.3-1.5-1.1-1.5c-0.6,0-1,0.4-1.2,0.9c0,0.1-0.1,0.3-0.1,0.4v3h-0.9V544.8z"/>
		<path class="st2" d="M471.9,547.9c0-0.4,0.3-0.6,0.6-0.6s0.6,0.3,0.6,0.6c0,0.4-0.2,0.6-0.6,0.6
			C472.1,548.5,471.9,548.2,471.9,547.9z"/>
		<path class="st2" d="M477.7,548.2c-0.2,0.1-0.8,0.3-1.4,0.3c-1.5,0-2.4-1-2.4-2.5c0-1.5,1-2.6,2.6-2.6c0.5,0,1,0.1,1.2,0.3
			l-0.2,0.7c-0.2-0.1-0.5-0.2-1-0.2c-1.1,0-1.7,0.8-1.7,1.9c0,1.1,0.7,1.8,1.7,1.8c0.5,0,0.8-0.1,1.1-0.2L477.7,548.2z"/>
		<path class="st2" d="M483.1,545.9c0,1.8-1.3,2.6-2.4,2.6c-1.3,0-2.4-1-2.4-2.5c0-1.6,1.1-2.6,2.4-2.6
			C482.2,543.4,483.1,544.4,483.1,545.9z M479.2,545.9c0,1.1,0.6,1.9,1.5,1.9c0.9,0,1.5-0.8,1.5-1.9c0-0.8-0.4-1.9-1.5-1.9
			C479.7,544,479.2,545,479.2,545.9z"/>
		<path class="st2" d="M484.3,544.8c0-0.5,0-0.9,0-1.3h0.8l0,0.8h0c0.3-0.5,0.7-0.9,1.5-0.9c0.7,0,1.2,0.4,1.4,1h0
			c0.2-0.3,0.3-0.5,0.5-0.6c0.3-0.2,0.6-0.3,1.1-0.3c0.7,0,1.6,0.4,1.6,2.1v2.9h-0.9v-2.8c0-0.9-0.3-1.5-1.1-1.5
			c-0.5,0-0.9,0.4-1.1,0.8c0,0.1-0.1,0.3-0.1,0.4v3h-0.9v-2.9c0-0.8-0.3-1.4-1-1.4c-0.6,0-1,0.4-1.1,0.9c-0.1,0.1-0.1,0.3-0.1,0.4v3
			h-0.9V544.8z"/>
		<path class="st2" d="M504.3,540.8v10.2h-0.7v-10.2H504.3z"/>
		<path class="st2" d="M521.3,549c-0.6,0.3-1.1,0.4-1.8,0.4c-1.7,0-3.1-1.2-3.1-3.2c0-2.1,1.5-3.9,3.7-3.9c1.8,0,3,1.2,3,2.9
			c0,1.5-0.9,2.4-1.8,2.4c-0.4,0-0.8-0.3-0.8-0.9h0c-0.4,0.6-0.8,0.9-1.4,0.9c-0.6,0-1.1-0.5-1.1-1.3c0-1.3,1-2.4,2.4-2.4
			c0.4,0,0.8,0.1,1.1,0.2l-0.3,1.8c-0.2,0.8,0,1.1,0.3,1.1c0.5,0,1.1-0.7,1.1-1.9c0-1.5-0.9-2.5-2.5-2.5c-1.7,0-3,1.3-3,3.4
			c0,1.7,1.1,2.7,2.6,2.7c0.6,0,1.1-0.1,1.5-0.4L521.3,549z M520.7,544.6c-0.1,0-0.3-0.1-0.5-0.1c-0.9,0-1.6,0.8-1.6,1.8
			c0,0.4,0.2,0.8,0.7,0.8c0.6,0,1.1-0.8,1.2-1.4L520.7,544.6z"/>
		<path class="st2" d="M524.2,544.8c0-0.5,0-0.9,0-1.3h0.8l0,0.8h0c0.3-0.5,0.7-0.9,1.5-0.9c0.7,0,1.2,0.4,1.4,1h0
			c0.2-0.3,0.3-0.5,0.5-0.6c0.3-0.2,0.6-0.3,1.1-0.3c0.7,0,1.6,0.4,1.6,2.1v2.9h-0.9v-2.8c0-0.9-0.3-1.5-1.1-1.5
			c-0.5,0-0.9,0.4-1.1,0.8c0,0.1-0.1,0.3-0.1,0.4v3h-0.9v-2.9c0-0.8-0.3-1.4-1-1.4c-0.6,0-1,0.4-1.1,0.9c-0.1,0.1-0.1,0.3-0.1,0.4v3
			h-0.9V544.8z"/>
		<path class="st2" d="M537.1,545.9c0,1.8-1.3,2.6-2.4,2.6c-1.3,0-2.4-1-2.4-2.5c0-1.6,1.1-2.6,2.4-2.6
			C536.2,543.4,537.1,544.4,537.1,545.9z M533.2,545.9c0,1.1,0.6,1.9,1.5,1.9c0.9,0,1.5-0.8,1.5-1.9c0-0.8-0.4-1.9-1.5-1.9
			C533.7,544,533.2,545,533.2,545.9z"/>
		<path class="st2" d="M538.3,541.2h0.9v7.2h-0.9V541.2z"/>
		<path class="st2" d="M540.7,541.2h0.9v7.2h-0.9V541.2z"/>
		<path class="st2" d="M543.4,543.5l1.1,2.9c0.1,0.3,0.2,0.7,0.3,1h0c0.1-0.3,0.2-0.7,0.3-1l1-2.9h0.9l-1.3,3.5
			c-0.6,1.7-1.1,2.6-1.7,3.1c-0.4,0.4-0.9,0.5-1.1,0.6l-0.2-0.8c0.2-0.1,0.5-0.2,0.8-0.4c0.2-0.2,0.5-0.5,0.8-1
			c0-0.1,0.1-0.2,0.1-0.2c0-0.1,0-0.1-0.1-0.2l-1.8-4.5H543.4z"/>
		<path class="st2" d="M551.3,548.2c-0.2,0.1-0.8,0.3-1.4,0.3c-1.5,0-2.4-1-2.4-2.5c0-1.5,1-2.6,2.6-2.6c0.5,0,1,0.1,1.2,0.3
			l-0.2,0.7c-0.2-0.1-0.5-0.2-1-0.2c-1.1,0-1.7,0.8-1.7,1.9c0,1.1,0.7,1.8,1.7,1.8c0.5,0,0.8-0.1,1.1-0.2L551.3,548.2z"/>
		<path class="st2" d="M552.3,544.8c0-0.5,0-0.9,0-1.3h0.8l0,0.8h0c0.3-0.5,0.7-0.9,1.5-0.9c0.7,0,1.2,0.4,1.4,1h0
			c0.2-0.3,0.3-0.5,0.5-0.6c0.3-0.2,0.6-0.3,1.1-0.3c0.7,0,1.6,0.4,1.6,2.1v2.9h-0.9v-2.8c0-0.9-0.3-1.5-1.1-1.5
			c-0.5,0-0.9,0.4-1.1,0.8c0,0.1-0.1,0.3-0.1,0.4v3h-0.9v-2.9c0-0.8-0.3-1.4-1-1.4c-0.6,0-1,0.4-1.1,0.9c-0.1,0.1-0.1,0.3-0.1,0.4v3
			h-0.9V544.8z"/>
		<path class="st2" d="M565.2,545.9c0,1.8-1.3,2.6-2.4,2.6c-1.3,0-2.4-1-2.4-2.5c0-1.6,1.1-2.6,2.4-2.6
			C564.3,543.4,565.2,544.4,565.2,545.9z M561.3,545.9c0,1.1,0.6,1.9,1.5,1.9c0.9,0,1.5-0.8,1.5-1.9c0-0.8-0.4-1.9-1.5-1.9
			C561.8,544,561.3,545,561.3,545.9z"/>
		<path class="st2" d="M566.4,545c0-0.6,0-1.1,0-1.5h0.8l0,1h0c0.2-0.7,0.8-1.1,1.4-1.1c0.1,0,0.2,0,0.3,0v0.8c-0.1,0-0.2,0-0.3,0
			c-0.6,0-1.1,0.5-1.2,1.1c0,0.1,0,0.3,0,0.4v2.6h-0.9V545z"/>
		<path class="st2" d="M570.7,542.1c0,0.3-0.2,0.5-0.6,0.5c-0.3,0-0.5-0.2-0.5-0.5c0-0.3,0.2-0.6,0.6-0.6
			C570.5,541.5,570.7,541.8,570.7,542.1z M569.7,548.4v-4.9h0.9v4.9H569.7z"/>
		<path class="st2" d="M572.1,544.8c0-0.5,0-0.9,0-1.3h0.8l0.1,0.8h0c0.2-0.5,0.8-0.9,1.6-0.9c0.7,0,1.7,0.4,1.7,2.1v2.9h-0.9v-2.8
			c0-0.8-0.3-1.5-1.1-1.5c-0.6,0-1,0.4-1.2,0.9c0,0.1-0.1,0.3-0.1,0.4v3h-0.9V544.8z"/>
	</g>
	<path class="st0" d="M137,60.3c7.6,8.9,12.1,20.4,12.1,32.9c0,28-22.7,50.8-50.8,50.8s-50.8-22.7-50.8-50.8s22.7-50.8,50.8-50.8
		c13.5,0,25.8,5.3,34.9,13.9"/>
	<g>
		<path class="st2" d="M73.9,85.9c-0.6-0.1-1.1-0.3-1.5-0.7c-0.4-0.4-0.5-0.9-0.5-1.5c0-0.8,0.3-1.5,0.9-2.1
			c0.6-0.6,1.3-0.8,2.1-0.8c0.1,0,0.1,0,0.2,0.1c0,0,0.1,0.1,0.1,0.2c0,0.1,0,0.1-0.1,0.2c0,0-0.1,0.1-0.2,0.1
			c-0.7,0-1.3,0.2-1.8,0.7c-0.5,0.5-0.8,1-0.8,1.7c0,0.5,0.2,0.9,0.5,1.3c0.3,0.3,0.7,0.5,1.3,0.5c0.6,0,1.2-0.3,1.8-0.9
			c0.6-0.6,1-1.4,1.4-2.3l3-9h1.2l-3.1,9c-0.1,0.6-0.4,1.1-0.8,1.7c-0.4,0.6-0.8,1-1.4,1.4c-0.6,0.4-1.2,0.5-1.8,0.5
			C74.3,86,74.2,86,73.9,85.9z M73.7,77c-0.4-0.3-0.8-0.7-1-1.1c-0.2-0.5-0.4-1-0.4-1.5c0-0.6,0.2-1.1,0.5-1.6
			c0.3-0.5,0.8-0.9,1.5-1.2c0.7-0.3,1.5-0.5,2.5-0.5c0.6,0,1.2,0.1,1.8,0.2s1.3,0.3,2.1,0.6c0.8,0.3,1.4,0.4,2,0.6
			c0.5,0.1,1.1,0.2,1.7,0.2c1.4,0,2.8-0.5,4.3-1.4l0.6,0.9c-1.5,1-3,1.4-4.3,1.4c-0.6,0-1.3-0.1-1.9-0.3c-0.6-0.2-1.3-0.4-2.1-0.7
			c-0.9-0.3-1.6-0.6-2.2-0.8c-0.6-0.2-1.3-0.3-1.9-0.3c-1.2,0-2.1,0.3-2.7,0.9c-0.6,0.6-0.9,1.3-0.9,2.1c0,0.6,0.2,1.2,0.6,1.7
			c0.4,0.5,0.9,0.7,1.4,0.7c0.5,0,0.9-0.1,1.3-0.3c0.4-0.2,0.6-0.6,0.8-1l0.4,0.2c-0.2,0.5-0.5,0.9-1,1.2c-0.5,0.3-1,0.4-1.6,0.4
			S74.1,77.3,73.7,77z"/>
		<path class="st2" d="M89.9,82.8c0,0,0.1,0,0.1,0c0,0,0.1,0.1,0.1,0.1l0,0.1c-0.6,0.7-1.3,1.4-1.9,1.9s-1.2,0.8-1.8,0.8
			c-0.5,0-0.9-0.1-1.1-0.4c-0.2-0.3-0.4-0.6-0.4-1c0-0.2,0-0.4,0.1-0.7l1.1-3.3c0-0.1,0.1-0.3,0.1-0.4c0-0.3-0.1-0.4-0.3-0.4
			c-0.1,0-0.1,0-0.2,0c-0.8,0.4-1.7,1.2-2.4,2.4c-0.8,1.2-1.4,2.4-1.8,3.5l-0.1,0.2h-1.2l4.9-14.3h1.2l-3.9,11.3
			c0.6-1,1.3-1.9,2-2.6c0.7-0.7,1.4-1,2.1-1h0h0c0.2,0,0.5,0.1,0.6,0.2c0.2,0.1,0.2,0.3,0.2,0.6c0,0.1,0,0.1,0,0.3l-1.3,3.7
			c-0.1,0.5-0.2,0.8-0.2,1c0,0.3,0.2,0.5,0.5,0.5c0.5,0,1-0.3,1.6-0.8c0.6-0.5,1.2-1.1,1.8-1.8C89.8,82.8,89.8,82.8,89.9,82.8z"/>
		<path class="st2" d="M99.1,83.4C99.1,83.4,99.1,83.4,99.1,83.4c-0.6,0.8-1.3,1.4-1.9,1.8c-0.7,0.5-1.4,0.7-1.9,0.7h0
			c-1.2,0-1.8-0.6-1.8-1.5c0-0.1,0-0.2,0-0.3c-0.3,0.4-0.5,0.6-0.6,0.7c-0.6,0.7-1.2,1-1.8,1c-0.6,0-1.1-0.2-1.4-0.5
			c-0.3-0.3-0.4-0.8-0.4-1.3c0-0.7,0.2-1.5,0.7-2.2c0.4-0.8,1-1.4,1.7-1.9c0.7-0.5,1.4-0.8,2.1-0.8c0.3,0,0.6,0.1,0.8,0.3
			c0.2,0.2,0.4,0.4,0.5,0.6c0,0,0,0,0,0.1c0,0,0,0.1-0.1,0.1c0,0-0.1,0-0.1,0c-0.1,0-0.1,0-0.1-0.1c0,0-0.1-0.1-0.2-0.3
			c-0.1-0.2-0.4-0.3-0.8-0.3c-0.6,0-1.2,0.3-1.7,0.9c-0.5,0.6-0.9,1.3-1.2,2c-0.3,0.8-0.5,1.5-0.5,2c0,0.3,0.1,0.6,0.2,0.8
			c0.1,0.2,0.3,0.3,0.5,0.3c0.5,0,1-0.3,1.6-0.9c0.4-0.5,0.8-1.1,1.2-1.9c0.3-0.7,0.7-1.3,1.2-1.9c0.1-0.1,0.2-0.2,0.4-0.2
			c0.2,0,0.3,0.1,0.5,0.2c0.1,0.1,0.2,0.2,0.2,0.4c0,0.1-0.1,0.3-0.2,0.4c-0.2,0.3-0.5,0.8-0.8,1.5c-0.3,0.7-0.5,1.3-0.5,1.7
			s0.2,0.7,0.6,0.8h0.1c0.5,0,1.1-0.2,1.7-0.6c0.6-0.4,1.2-1,1.7-1.6c0,0,0.1,0,0.2,0C99,83.3,99.1,83.3,99.1,83.4z"/>
		<path class="st2" d="M107.5,82.8c0,0,0.1,0,0.1,0c0,0,0.1,0.1,0.1,0.1l0,0.1c-0.6,0.7-1.3,1.4-1.9,1.9c-0.6,0.5-1.2,0.8-1.8,0.8
			c-0.5,0-0.9-0.1-1.1-0.4c-0.2-0.3-0.4-0.6-0.4-1c0-0.2,0-0.5,0.1-0.7l1.1-3.3c0-0.1,0.1-0.3,0.1-0.4c0-0.3-0.1-0.4-0.3-0.4
			c-0.1,0-0.1,0-0.2,0c-0.8,0.3-1.5,1-2.3,2.1c-0.7,1.1-1.3,2.1-1.8,3.2L99,85.7h-1.2l2.5-7.4h1.2l-1.5,4.3c0.6-1,1.2-1.9,1.9-2.5
			c0.7-0.7,1.4-1,2.1-1h0h0c0.2,0,0.4,0.1,0.6,0.2c0.2,0.2,0.2,0.3,0.2,0.6c0,0.1,0,0.2,0,0.2l-1.3,3.7c-0.1,0.5-0.2,0.8-0.2,1
			c0,0.3,0.2,0.5,0.5,0.5c0.5,0,1-0.3,1.6-0.8c0.6-0.5,1.2-1.1,1.8-1.8C107.4,82.8,107.4,82.8,107.5,82.8z"/>
		<path class="st2" d="M115.3,83c0,0,0.1,0,0.1,0.1c0,0,0,0.1,0,0.1c0,0,0,0.1,0,0.1c-0.6,0.7-1.3,1.3-2,1.8c-0.8,0.5-1.4,0.7-2,0.7
			h0c-0.9,0-1.6-0.3-2.1-1c-0.5-0.6-0.8-1.4-0.9-2.3l-1.1,3.3H106l4.9-14.3h1.2l-3.4,10.1c0.9,0,1.6-0.2,2.1-0.6
			c0.6-0.4,0.9-1,1-1.7h1.3c-0.1,0.6-0.3,1-0.7,1.5c-0.4,0.4-0.8,0.7-1.4,0.9c-0.5,0.2-1.1,0.3-1.6,0.4c0,0.5,0.1,1,0.2,1.5
			c0.1,0.5,0.4,1,0.7,1.4c0.3,0.4,0.7,0.6,1.1,0.6c0.5,0,1.1-0.2,1.8-0.6c0.7-0.4,1.3-1,1.9-1.7C115.2,83,115.2,83,115.3,83z"/>
		<path class="st2" d="M91.8,113l0.3,0.3c-0.6,0.7-1.3,1-2.1,1c-0.2,0-0.5,0-0.9-0.1l-0.2,0.5c-0.2,0.8-0.5,1.6-1.1,2.2
			c-0.5,0.6-1.2,1.1-1.9,1.4c-0.7,0.3-1.4,0.5-2.1,0.5c-0.8,0-1.5-0.2-2-0.7c-0.5-0.5-0.8-1.2-0.8-2.1c0-0.7,0.2-1.3,0.6-1.8
			c0.4-0.5,0.9-0.9,1.5-1.1c0.6-0.2,1.3-0.4,1.9-0.4c0.4,0,0.7,0,1.1,0.1c0.4,0.1,0.8,0.2,1.4,0.5c0.2,0.1,0.4,0.1,0.6,0.2l1.3-3.8
			c-0.9,0.9-1.8,1.5-2.9,2c-1.1,0.5-2.2,0.7-3.3,0.7c-0.6,0-1.1-0.2-1.4-0.5c-0.3-0.3-0.5-0.8-0.5-1.4c0-0.5,0.1-1,0.3-1.7v0
			l0.1-0.3l0-0.1l3.5-10.2c-1,0.1-2,0.3-2.9,0.6c-0.9,0.3-1.6,0.8-2.2,1.3c-0.6,0.5-1,1.1-1.1,1.6c-0.1,0.3-0.1,0.5-0.1,0.8
			c0,0.3,0.1,0.6,0.2,0.8c0.3,0.8,1,1.4,2.1,1.9c0.1,0,0.1,0.1,0.1,0.1c0,0.1,0,0.1,0,0.2c0,0.1-0.1,0.1-0.1,0.1c-0.1,0-0.1,0-0.2,0
			c-1.2-0.5-2-1.2-2.3-2.1c-0.1-0.3-0.2-0.7-0.2-1c0-0.3,0.1-0.7,0.2-0.9c0.2-0.6,0.6-1.3,1.3-1.8c0.7-0.6,1.5-1.1,2.6-1.5
			c1.1-0.4,2.2-0.6,3.5-0.6h0.7l-3.9,11.5c-0.2,0.5-0.2,1-0.2,1.4c0,0.7,0.3,1.1,0.8,1.2c1.3,0,2.5-0.3,3.6-0.9
			c1.1-0.6,2.1-1.5,3-2.5l1-3h0l2.6-7.7l0.5,0h0.7l-2.1,6.2c-0.2,0.6-0.3,1.1-0.5,1.6l-2.8,8.1c0.2,0,0.4,0.1,0.7,0.1
			C90.7,113.8,91.3,113.6,91.8,113z M87.6,113.7c-0.5-0.2-1-0.3-1.4-0.4c-0.4-0.1-0.7-0.1-1-0.1c-0.6,0-1.1,0.1-1.7,0.3
			c-0.6,0.2-1,0.5-1.3,0.9c-0.3,0.4-0.5,0.9-0.5,1.5c0,0.7,0.2,1.2,0.7,1.7c0.5,0.4,1.1,0.7,1.7,0.7c0.7,0,1.4-0.3,2.1-0.9
			c0.7-0.6,1.2-1.5,1.6-2.7h0l0.3-0.8C87.9,113.8,87.7,113.8,87.6,113.7z"/>
		<path class="st2" d="M100.9,109.6c0,0,0.1,0,0.1,0c0,0,0.1,0.1,0.1,0.1c0,0,0,0.1,0,0.1c-0.4,0.5-0.8,0.8-1.3,1.1
			c-0.4,0.3-0.9,0.4-1.3,0.4c-0.3,0-0.6-0.1-0.9-0.2c-0.7,0.7-1.3,1-2,1c-0.6,0-1.1-0.1-1.4-0.4c-0.3-0.3-0.5-0.7-0.5-1.2
			c0-0.1,0-0.2,0-0.4c0-0.7,0.2-1.4,0.6-2.1c0.4-0.7,0.9-1.3,1.6-1.8c0.6-0.5,1.3-0.7,2-0.7h0h0c0.3,0,0.5,0.1,0.8,0.3
			c0.2,0.2,0.4,0.4,0.5,0.6c0,0,0,0,0,0.1c0,0,0,0.1-0.1,0.1c0,0-0.1,0-0.1,0c-0.1,0-0.1,0-0.1-0.1c-0.1-0.2-0.2-0.4-0.4-0.5
			c-0.2-0.1-0.3-0.2-0.6-0.2c-0.6,0-1.1,0.3-1.6,0.8c-0.5,0.5-0.8,1.2-1.1,1.9c-0.3,0.7-0.4,1.4-0.4,2c0,0.4,0.1,0.7,0.2,0.9
			c0.1,0.2,0.3,0.3,0.6,0.3c0.5,0,1.1-0.3,1.6-1c-0.3-0.2-0.5-0.5-0.6-0.8c-0.1-0.3-0.2-0.7-0.2-1c0-0.6,0.1-1.1,0.4-1.6
			c0.3-0.5,0.7-0.7,1.2-0.7c0.8,0,1.2,0.4,1.2,1c0,0.5-0.1,1.1-0.3,1.6c-0.3,0.6-0.6,1.1-1,1.5c0.2,0.1,0.4,0.1,0.6,0.1
			C99.1,111.1,99.9,110.6,100.9,109.6C100.8,109.7,100.8,109.6,100.9,109.6z M98.2,109.3c0.2-0.6,0.4-1.1,0.4-1.5
			c0-0.4-0.2-0.6-0.5-0.6c-0.4,0-0.7,0.2-0.9,0.6c-0.2,0.4-0.3,0.9-0.3,1.3c0,0.3,0.1,0.6,0.2,0.9c0.1,0.3,0.3,0.5,0.5,0.7
			C97.6,110.3,97.9,109.8,98.2,109.3z"/>
		<path class="st2" d="M104.9,111.8c-0.3-0.3-0.4-0.6-0.4-1c0-0.1,0-0.3,0.1-0.4c0-0.1,0.1-0.3,0.1-0.4c0-0.1,0.1-0.2,0.1-0.3
			c0-0.1,0.1-0.4,0.3-0.9c-0.6,1-1.2,1.8-1.9,2.4c-0.7,0.6-1.4,1-2.1,1h0c-0.2,0-0.4-0.1-0.6-0.2c-0.2-0.2-0.2-0.3-0.2-0.6
			c0-0.1,0-0.3,0.1-0.6c0.1-0.2,0.2-0.6,0.4-1.2c0.5-1.4,0.9-2.7,1.4-4.1h1.2l-1.8,5.3c0,0.1-0.1,0.3-0.1,0.4c0,0.3,0.1,0.4,0.3,0.4
			c0.4,0,0.9-0.3,1.4-0.9c0.5-0.6,1-1.3,1.5-2.1c0.5-0.8,0.9-1.5,1.1-2.1l0.4-1.1h1.2l-1.2,3.5c-0.3,0.9-0.5,1.4-0.5,1.6
			c-0.1,0.2-0.1,0.4-0.1,0.7c0,0.4,0.2,0.5,0.5,0.5c0.8,0,1.9-0.9,3.4-2.6c0,0,0.1,0,0.1,0c0.1,0,0.2,0.1,0.2,0.2l0,0.1
			c-1.5,1.8-2.8,2.7-3.6,2.7C105.5,112.2,105.1,112.1,104.9,111.8z"/>
		<path class="st2" d="M110.7,111.9c-0.2-0.2-0.3-0.4-0.3-0.7c0-0.3,0.1-0.5,0.3-0.7c0.2-0.2,0.4-0.3,0.7-0.3s0.5,0.1,0.7,0.3
			c0.2,0.2,0.3,0.4,0.3,0.7c0,0.3-0.1,0.5-0.3,0.7c-0.2,0.2-0.4,0.3-0.7,0.3S110.9,112.1,110.7,111.9z M112.4,109.1h-1.2l3.9-11.3
			h1.2L112.4,109.1z"/>
	</g>
	<rect x="-276" y="54" style="fill:none;" width="230" height="507"/>
	<text transform="matrix(1 0 0 1 -276 80.6499)"><tspan x="0" y="0" style="font-family:'Arkinay-Regular'; font-size:41px;">Cutting Settings </tspan><tspan x="0" y="49.2" style="font-family:'Arkinay-Regular'; font-size:41px;">for the 60W </tspan><tspan x="0" y="98.4" style="font-family:'Arkinay-Regular'; font-size:41px;">Laser Cutter</tspan><tspan x="0" y="156" style="font-family:'Verdana'; font-size:16px;">To Score:</tspan><tspan x="0" y="175.2" style="font-family:'Verdana'; font-size:16px;">Speed: 100</tspan><tspan x="0" y="194.4" style="font-family:'Verdana'; font-size:16px;">Power: 5</tspan><tspan x="0" y="213.6" style="font-family:'Verdana'; font-size:16px;">Frequency: 2500</tspan><tspan x="0" y="252" style="font-family:'Verdana'; font-size:16px;">To Cut:</tspan><tspan x="0" y="271.2" style="font-family:'Verdana'; font-size:16px;">Speed: 80</tspan><tspan x="0" y="290.4" style="font-family:'Verdana'; font-size:16px;">Power: 11</tspan><tspan x="0" y="309.6" style="font-family:'Verdana'; font-size:16px;">Frequency: 2500</tspan></text>
</g>
<g id="Layer_2">
	<path class="st3" d="M156.4,233.5c0,0.7,3.3,1.3,7.4,1.3c4.1,0,7.4-0.6,7.4-1.3"/>
	<path class="st3" d="M237.6,167.2c0.7,0,1.3-3.3,1.3-7.4c0-4.1-0.6-7.4-1.3-7.4"/>
	<line class="st3" x1="392" y1="100.2" x2="448.5" y2="100.2"/>
	<line class="st3" x1="223.5" y1="100.2" x2="316.8" y2="100.2"/>
	<line class="st3" x1="182.5" y1="140.2" x2="447.9" y2="140.2"/>
	<line class="st3" x1="184" y1="179.6" x2="450.3" y2="179.6"/>
	<polyline class="st3" points="184.2,146.6 184,179.6 144.6,179.9 144.5,374.4 	"/>
	<line class="st3" x1="104.9" y1="219.6" x2="104.8" y2="487.1"/>
	<line class="st3" x1="65.1" y1="219.6" x2="65.1" y2="315.3"/>
	<path class="st3" d="M814.6,233.5c0,0.7-3.3,1.3-7.4,1.3c-4.1,0-7.4-0.6-7.4-1.3"/>
	<path class="st3" d="M733.4,167.2c-0.7,0-1.3-3.3-1.3-7.4c0-4.1,0.6-7.4,1.3-7.4"/>
	<path class="st3" d="M540.9,60"/>
	<line class="st3" x1="747" y1="60.4" x2="517.3" y2="60.4"/>
	<line class="st3" x1="590.6" y1="100.2" x2="448.5" y2="100.2"/>
	<path class="st3" d="M590.6,100.2"/>
	<path class="st3" d="M665.7,100.2"/>
	<line class="st3" x1="747.6" y1="100.2" x2="665.7" y2="100.2"/>
	<line class="st3" x1="788.5" y1="140.2" x2="447.9" y2="140.2"/>
	<line class="st3" x1="787" y1="179.6" x2="450.3" y2="179.6"/>
	<polyline class="st3" points="786.8,376.9 787,179.6 826.5,179.9 826.2,527.1 786.8,527.4 786.8,376.9 	"/>
	<line class="st3" x1="866.2" y1="219.6" x2="866.2" y2="374.1"/>
	<line class="st3" x1="905.9" y1="219.6" x2="905.9" y2="315.3"/>
	<path class="st3" d="M156.3,473.2c0-0.7,3.3-1.3,7.4-1.3c4.1,0,7.4,0.6,7.4,1.3"/>
	<path class="st3" d="M237.5,539.5c0.7,0,1.3,3.3,1.3,7.4c0,4.1-0.6,7.4-1.3,7.4"/>
	<path class="st3" d="M403.6,646.6"/>
	<line class="st3" x1="223.9" y1="646.2" x2="442.5" y2="646.2"/>
	<line class="st3" x1="392" y1="606.6" x2="447.3" y2="606.8"/>
	<line class="st3" x1="223.4" y1="606.5" x2="316.8" y2="606.5"/>
	<line class="st3" x1="182.4" y1="566.5" x2="448" y2="566.5"/>
	<line class="st3" x1="183.9" y1="527.1" x2="445.4" y2="527.4"/>
	<polyline class="st3" points="183.9,527.1 144.5,526.8 144.5,374.4 	"/>
	<path class="st3" d="M814.4,473.5c0-0.7-3.3-1.3-7.4-1.3c-4.1,0-7.4,0.6-7.4,1.3"/>
	<path class="st3" d="M733.2,539.8c-0.7,0-1.3,3.3-1.3,7.4c0,4.1,0.6,7.4,1.3,7.4"/>
	<path class="st3" d="M492.1,646.9"/>
	<line class="st3" x1="746.8" y1="646.5" x2="517.7" y2="646.5"/>
	<line class="st3" x1="590.4" y1="606.8" x2="447.3" y2="606.8"/>
	<line class="st3" x1="747.3" y1="606.8" x2="665.7" y2="606.8"/>
	<line class="st3" x1="788.3" y1="566.8" x2="448" y2="566.5"/>
	<line class="st3" x1="786.8" y1="527.4" x2="445.4" y2="527.4"/>
	<line class="st3" x1="865.9" y1="487.4" x2="866.2" y2="374.1"/>
	<line class="st3" x1="390.6" y1="646.5" x2="413.1" y2="646.2"/>
	<line class="st3" x1="442" y1="60.4" x2="224" y2="60.4"/>
	<line class="st3" x1="65.1" y1="390.6" x2="65" y2="487.1"/>
	<line class="st3" x1="905.6" y1="487.4" x2="905.9" y2="219.6"/>
	<polyline class="st3" points="183.9,527.1 184,215 182.5,215 184,215 184.3,179.6 	"/>
</g>
</svg>
